<?xml version="1.0" encoding="UTF-8"?><svg xmlns="http://www.w3.org/2000/svg" xmlns:xlink="http://www.w3.org/1999/xlink" height="326.7" preserveAspectRatio="xMidYMid meet" version="1.0" viewBox="0.0 0.0 415.6 326.7" width="415.6" zoomAndPan="magnify"><defs><clipPath id="a"><path d="M 84 0 L 332 0 L 332 326.671875 L 84 326.671875 Z M 84 0"/></clipPath><clipPath id="b"><path d="M 342 201 L 415.550781 201 L 415.550781 271 L 342 271 Z M 342 201"/></clipPath></defs><g><g clip-path="url(#a)" id="change1_1"><path d="M 331.988281 275.46875 L 208.015625 326.671875 L 84.042969 275.46875 L 84.042969 0 L 331.988281 0 L 331.988281 275.46875" fill="#ee2631"/></g><g id="change2_1"><path d="M 103.351562 19.125 L 103.351562 262.722656 L 130.96875 274.128906 L 131.007812 19.125 L 103.351562 19.125" fill="#fff"/></g><g id="change2_2"><path d="M 160.261719 19.125 L 160.21875 286.207031 L 193.191406 299.828125 L 193.234375 19.125 L 160.261719 19.125" fill="#fff"/></g><g id="change2_3"><path d="M 284.535156 274.347656 L 312.675781 262.722656 L 312.675781 19.125 L 284.574219 19.125 L 284.535156 274.347656" fill="#fff"/></g><g id="change2_4"><path d="M 222.359375 19.125 L 222.316406 300.042969 L 255.292969 286.421875 L 255.335938 19.125 L 222.359375 19.125" fill="#fff"/></g><g id="change3_1"><path d="M 316.1875 15.648438 L 99.84375 15.648438 L 99.84375 265.039062 L 130.96875 277.894531 L 160.21875 289.976562 L 193.191406 303.59375 L 208.015625 309.714844 L 222.316406 303.808594 L 255.289062 290.1875 L 284.535156 278.113281 L 316.1875 265.039062 Z M 312.675781 262.722656 L 284.535156 274.347656 L 255.292969 286.421875 L 222.316406 300.042969 L 208.015625 305.949219 L 193.191406 299.828125 L 160.21875 286.207031 L 130.96875 274.128906 L 103.351562 262.722656 L 103.351562 19.125 L 312.675781 19.125 L 312.675781 262.722656" fill="#243368"/></g><g id="change3_2"><path d="M 99.84375 200.570312 L 99.84375 271.015625 L 208.015625 311.359375 L 316.1875 271.015625 L 316.1875 200.570312 L 99.84375 200.570312" fill="#243368"/></g><g id="change2_5"><path d="M 208.132812 258.753906 L 212.585938 271.160156 L 224.632812 272.015625 L 215.339844 280.53125 L 218.328125 293.464844 L 208.132812 286.324219 L 197.9375 293.464844 L 200.925781 280.53125 L 191.636719 272.015625 L 203.679688 271.160156 L 208.132812 258.753906" fill="#fff" fill-rule="evenodd"/></g><g id="change2_6"><path d="M 140.671875 254.546875 L 143.375 262.074219 L 150.6875 262.589844 L 145.046875 267.761719 L 146.859375 275.609375 L 140.671875 271.277344 L 134.484375 275.609375 L 136.300781 267.761719 L 130.660156 262.589844 L 137.96875 262.074219 L 140.671875 254.546875" fill="#fff" fill-rule="evenodd"/></g><g id="change2_7"><path d="M 275.152344 255.046875 L 277.851562 262.574219 L 285.164062 263.09375 L 279.527344 268.261719 L 281.339844 276.109375 L 275.152344 271.777344 L 268.964844 276.109375 L 270.777344 268.261719 L 265.140625 263.09375 L 272.453125 262.574219 L 275.152344 255.046875" fill="#fff" fill-rule="evenodd"/></g><g id="change2_8"><path d="M 255.660156 197.828125 C 255.878906 199.964844 256.011719 201.925781 256.28125 203.863281 C 257.109375 209.875 256.238281 215.636719 254.382812 221.28125 C 253.324219 224.496094 249.523438 231.527344 249.085938 232.226562 C 248.910156 231.890625 245.519531 224.65625 243.921875 221.28125 C 242.640625 218.574219 241.324219 215.886719 240.015625 213.191406 C 238.777344 210.640625 237.386719 208.191406 235.699219 205.976562 C 234.976562 205.027344 234.128906 204.195312 233.1875 203.152344 C 233.085938 203.648438 232.1875 211.414062 231.484375 214.96875 C 230.820312 218.328125 229.566406 221.511719 227.953125 224.46875 C 225.238281 229.4375 216.9375 239.8125 216.171875 240.785156 C 215.929688 239.96875 215.703125 239.273438 215.519531 238.5625 C 214.394531 234.296875 213.21875 230.046875 212.1875 225.753906 C 211.238281 221.820312 210.21875 217.917969 208.960938 214.101562 C 208.074219 211.425781 207.175781 208.746094 205.757812 206.339844 C 205.078125 205.175781 204.3125 204.09375 203.113281 203.285156 C 202.875 204.039062 201.222656 209.308594 200.378906 211.140625 C 196.703125 219.125 192.355469 226.613281 187.132812 233.453125 C 185.324219 235.816406 183.488281 238.152344 181.625 240.460938 C 180.800781 241.484375 179.878906 242.40625 178.789062 243.609375 C 178.753906 242.867188 178.71875 242.433594 178.714844 242 C 178.621094 235.953125 178.613281 229.90625 178.414062 223.863281 C 178.257812 219.003906 178.074219 214.125 177.277344 209.324219 C 176.917969 207.152344 176.328125 205.027344 175.777344 202.597656 C 175.378906 203.140625 169.503906 211.261719 166.351562 214.570312 C 162.234375 218.898438 157.78125 222.769531 153.207031 226.476562 C 152.84375 226.773438 152.46875 227.054688 152.09375 227.335938 C 151.972656 227.421875 151.835938 227.484375 151.589844 227.628906 C 151.417969 226.542969 152.722656 214.269531 153.152344 209.09375 C 153.375 206.417969 153.597656 203.738281 153.703125 201.058594 C 153.796875 198.714844 153.722656 196.363281 153.722656 193.953125 C 153.273438 194 149.105469 199.375 147.066406 201.503906 C 142.515625 206.257812 137.609375 210.480469 132.265625 214.0625 C 131.144531 214.8125 129.933594 215.398438 128.597656 216.152344 C 128.652344 215.71875 130.476562 207.988281 131.4375 204.371094 C 132.386719 200.796875 133.449219 197.253906 134.425781 193.683594 C 135.648438 189.234375 136.882812 184.789062 138.019531 180.3125 C 138.5625 178.175781 139.304688 173.484375 139.285156 173.210938 C 135.75 175.597656 132.292969 177.9375 128.644531 180.402344 C 128.746094 179.894531 132.351562 168.125 133.804688 162.441406 C 135.363281 156.351562 136.582031 150.152344 136.910156 143.789062 C 137.136719 139.429688 136.636719 135.152344 135.40625 131.011719 C 135.105469 130 134.28125 127.507812 132.695312 127.339844 C 131.90625 127.316406 131.117188 127.234375 130.324219 127.238281 C 126.742188 127.261719 123.183594 127.597656 119.675781 128.46875 C 119.382812 128.542969 119.085938 128.605469 118.796875 128.703125 C 117.492188 129.136719 117.035156 129.65625 116.976562 131.199219 C 116.835938 134.765625 116.75 138.335938 116.679688 141.902344 C 116.601562 145.679688 116.566406 149.457031 116.511719 153.234375 C 116.507812 153.480469 116.484375 153.726562 116.464844 154.058594 C 116.28125 154.007812 108.292969 147.363281 104.855469 143.523438 C 101.550781 139.828125 98.921875 135.574219 97.238281 130.699219 C 95.460938 125.550781 94.1875 120.234375 93.929688 114.691406 C 93.746094 110.746094 93.9375 106.800781 94.488281 102.886719 C 95.386719 96.546875 97.71875 90.839844 100.941406 85.597656 C 103.351562 81.667969 106.484375 78.558594 110.300781 76.308594 C 113.828125 74.230469 117.410156 72.277344 121.164062 70.75 C 121.582031 70.582031 121.980469 70.363281 122.476562 70.128906 C 122.324219 69.660156 122.1875 69.28125 122.082031 68.894531 C 121.890625 68.214844 121.679688 67.535156 121.550781 66.839844 C 121.402344 66.027344 121.644531 65.308594 122.292969 64.882812 C 122.96875 64.4375 123.683594 64.054688 124.410156 63.71875 C 125.761719 63.089844 127.152344 62.558594 128.496094 61.902344 C 133.597656 59.417969 138.691406 56.90625 143.777344 54.386719 C 144.601562 53.976562 145.375 53.449219 146.179688 52.988281 C 151.3125 50.066406 156.535156 47.394531 162.03125 45.398438 C 167.375 43.457031 172.8125 42.222656 178.449219 42.613281 C 182.09375 42.863281 185.730469 43.3125 189.34375 43.835938 C 193.710938 44.46875 198.054688 45.28125 202.40625 46.007812 C 206.464844 46.683594 210.519531 47.382812 214.585938 48.007812 C 219.09375 48.703125 223.605469 49.40625 228.128906 49.960938 C 232.058594 50.4375 236.003906 50.734375 239.945312 51.078125 C 242.617188 51.3125 258.1875 55.128906 263.367188 56.40625 C 271.621094 58.441406 279.945312 59.839844 288.433594 59.738281 C 290.128906 59.71875 294.238281 59.863281 294.761719 59.914062 C 293.113281 62.363281 285.074219 69.398438 283.03125 71.117188 C 280.992188 72.835938 278.882812 74.449219 276.683594 76.203125 C 277.179688 76.773438 277.632812 77.308594 278.105469 77.816406 C 279.300781 79.09375 280.566406 80.292969 281.695312 81.640625 C 283.984375 84.375 285.933594 87.414062 287.882812 90.457031 C 291.578125 96.230469 294.359375 102.554688 297.070312 108.925781 C 299.167969 113.851562 301.277344 118.769531 303.078125 123.84375 C 303.664062 125.480469 304.941406 129.378906 304.984375 129.59375 C 302.253906 128.765625 296.777344 127.558594 296.746094 127.636719 C 297.464844 128.476562 298.175781 129.320312 298.898438 130.148438 C 302.089844 133.808594 304.714844 137.953125 307.367188 142.085938 C 310.996094 147.738281 313.902344 153.851562 316.816406 159.96875 C 318.453125 163.414062 320.140625 166.835938 321.804688 170.269531 C 321.988281 170.65625 322.15625 171.054688 322.40625 171.609375 C 315.714844 168.726562 309.363281 165.558594 302.914062 162.023438 C 304.664062 165.492188 306.417969 168.613281 307.851562 171.90625 C 309.292969 175.222656 310.578125 178.644531 311.632812 182.136719 C 312.675781 185.585938 313.414062 189.152344 314.152344 192.703125 C 314.898438 196.292969 315.480469 199.921875 316.171875 203.734375 C 315.777344 203.546875 314.089844 202.414062 313.460938 201.953125 C 310.15625 199.546875 306.855469 197.121094 303.53125 194.738281 C 302.492188 193.988281 301.390625 193.339844 300.304688 192.671875 C 299.851562 192.394531 299.371094 192.179688 298.683594 191.816406 C 300.921875 198.183594 302.921875 204.34375 304.554688 210.648438 C 306.195312 216.972656 307.371094 223.394531 308.023438 229.960938 C 305.894531 228.390625 303.804688 226.832031 301.699219 225.304688 C 296.8125 221.757812 291.890625 218.265625 287.027344 214.675781 C 282.175781 211.097656 277.007812 208.1875 271.796875 205.347656 C 270.140625 204.445312 268.515625 203.460938 266.824219 202.644531 C 263.40625 201 256.015625 197.929688 255.660156 197.828125 Z M 144.074219 162.683594 C 144.179688 162.71875 144.1875 166.621094 144.105469 168.539062 C 143.90625 173.214844 143.222656 177.800781 142.101562 182.304688 C 141.214844 185.859375 140.257812 189.394531 139.332031 192.9375 C 138.441406 196.316406 136.523438 203.691406 136.460938 204 C 137.96875 203.011719 139.347656 201.929688 140.660156 200.753906 C 144.757812 197.09375 148.320312 192.8125 151.890625 188.539062 C 153.570312 186.53125 156.214844 181.609375 156.410156 181.324219 C 157.433594 185.230469 157.433594 189.09375 157.566406 192.90625 C 157.699219 196.722656 157.613281 200.550781 157.511719 204.367188 C 157.414062 208.203125 157.179688 212.027344 156.996094 216.011719 C 157.378906 215.707031 157.714844 215.46875 158.015625 215.179688 C 160.351562 212.933594 162.726562 210.730469 165.003906 208.410156 C 169.3125 204.015625 173.113281 199.171875 175.382812 193.050781 C 175.519531 192.6875 175.707031 192.347656 175.949219 191.835938 C 176.246094 192.367188 178.613281 197.410156 179.363281 199.644531 C 180.683594 203.585938 181.460938 207.714844 181.820312 211.894531 C 182.320312 217.613281 182.972656 229.632812 182.996094 229.902344 C 183.0625 229.9375 185.78125 226.027344 186.6875 224.535156 C 188.441406 221.652344 190.496094 219.019531 192.117188 216.023438 C 194.195312 212.171875 196.1875 208.273438 197.890625 204.199219 C 198.269531 203.296875 198.519531 202.320312 198.777344 201.359375 C 199.425781 198.964844 200.058594 196.5625 200.21875 193.90625 C 200.503906 194.101562 204.554688 197.671875 206.164062 199.621094 C 208.503906 202.441406 210.605469 205.476562 211.9375 209.03125 C 213.242188 212.511719 214.378906 216.074219 215.472656 219.644531 C 216.453125 222.847656 217.269531 226.109375 218.164062 229.371094 C 218.226562 229.320312 220.886719 225.601562 222.058594 223.746094 C 223.425781 221.578125 224.59375 219.269531 225.421875 216.78125 C 226.363281 213.945312 227.082031 211.039062 227.554688 208.050781 C 228.183594 204.0625 228.074219 200.113281 227.226562 196.191406 C 227.011719 195.191406 226.6875 194.226562 226.363281 193.042969 C 228.039062 194.074219 229.578125 194.949219 231.054688 195.941406 C 233.96875 197.894531 236.746094 200.085938 238.902344 203.058594 C 240.792969 205.667969 242.566406 208.386719 244.351562 211.089844 C 245.671875 213.09375 248.121094 219.285156 248.453125 220.109375 C 248.550781 220.109375 249.769531 217.976562 250.148438 216.855469 C 251.398438 213.144531 251.90625 209.316406 251.480469 205.355469 C 251.367188 204.3125 251.296875 203.265625 251.199219 202.222656 C 250.84375 198.371094 250.222656 194.582031 249.171875 190.890625 C 249.109375 190.679688 249.085938 190.460938 249.007812 190.058594 C 251.121094 190.730469 253.089844 191.289062 255.015625 191.980469 C 260.398438 193.902344 265.628906 196.261719 270.851562 198.648438 C 274.449219 200.292969 277.867188 202.328125 281.25 204.4375 C 283.449219 205.808594 285.585938 207.3125 287.738281 208.777344 C 291.332031 211.230469 299.046875 216.480469 299.492188 216.75 C 299.371094 216.003906 297.519531 207.375 296.664062 203.546875 C 295.828125 199.785156 294.523438 196.214844 292.976562 192.757812 C 291.242188 188.886719 289.160156 185.238281 286.925781 181.695312 C 286.269531 180.65625 285.6875 179.5625 285.070312 178.492188 C 285.40625 178.4375 290.917969 181.832031 293.574219 183.210938 C 298.078125 185.554688 307.320312 191.230469 307.8125 191.492188 C 307.484375 190.214844 307.28125 189.148438 306.941406 188.144531 C 305.277344 183.242188 303.511719 178.390625 301.371094 173.710938 C 298.53125 167.492188 295.445312 161.445312 291.855469 155.726562 C 289.34375 151.714844 286.527344 148.011719 282.964844 145.089844 C 282.460938 144.679688 281.984375 144.222656 281.324219 143.632812 C 281.660156 143.6875 286.648438 145.75 288.957031 146.96875 C 293.039062 149.125 296.964844 151.621094 300.808594 154.273438 C 303.425781 156.082031 305.996094 158.003906 308.859375 159.339844 C 309.183594 159.488281 309.515625 159.613281 310.019531 159.820312 C 309.78125 159.207031 309.644531 158.8125 309.476562 158.445312 C 307.855469 154.929688 305.953125 151.609375 303.816406 148.453125 C 303.003906 147.246094 302.164062 146.058594 301.351562 144.851562 C 298.433594 140.53125 295.769531 135.988281 292.328125 132.125 C 290.953125 130.574219 289.683594 128.902344 288.378906 127.277344 C 285.578125 123.808594 282.570312 120.574219 279.386719 117.546875 C 278.078125 116.308594 276.738281 115.125 275.410156 113.917969 C 282.4375 116.058594 289.167969 119.148438 296.203125 121.808594 C 296.117188 121.394531 296.085938 121.199219 296.039062 121.015625 C 295.226562 117.804688 293.894531 114.824219 292.515625 111.902344 C 290.324219 107.261719 287.9375 102.738281 285.683594 98.140625 C 284.003906 94.703125 282.210938 91.359375 280.027344 88.292969 C 279.140625 87.046875 278.191406 85.839844 277.167969 84.734375 C 273.929688 81.226562 265.84375 75.839844 265.578125 75.628906 C 271.574219 73.140625 276.972656 69.792969 281.746094 65.171875 C 281.277344 65.023438 272.726562 64.632812 268.929688 63.949219 C 266.8125 63.570312 264.714844 63.058594 262.59375 62.710938 C 257.664062 61.902344 252.878906 60.441406 248.046875 59.164062 C 244.867188 58.324219 241.636719 57.609375 238.394531 57.203125 C 233.273438 56.5625 228.105469 56.429688 222.996094 55.597656 C 219.007812 54.945312 214.996094 54.503906 211.019531 53.8125 C 205.664062 52.882812 200.339844 51.722656 194.984375 50.820312 C 190.929688 50.136719 186.847656 49.636719 182.769531 49.167969 C 179.546875 48.796875 176.300781 48.757812 173.066406 48.988281 C 168.519531 49.308594 164.167969 50.6875 159.890625 52.339844 C 154.179688 54.546875 148.859375 57.6875 143.621094 61.019531 C 140.195312 63.199219 136.832031 65.550781 132.949219 66.679688 C 132.261719 66.882812 131.574219 67.105469 130.890625 67.34375 C 129.054688 67.988281 128.441406 69.515625 129.238281 71.472656 C 129.425781 71.925781 129.652344 72.351562 129.878906 72.828125 C 129.703125 72.933594 129.578125 73.023438 129.445312 73.078125 C 127.257812 73.976562 125.078125 74.90625 122.875 75.757812 C 119.125 77.207031 115.519531 78.964844 112.277344 81.566406 C 108.421875 84.664062 105.410156 88.566406 103.167969 93.234375 C 100.890625 97.964844 99.671875 103.039062 99.136719 108.339844 C 98.738281 112.253906 98.863281 116.15625 99.617188 119.992188 C 100.410156 124.019531 101.601562 127.910156 103.328125 131.578125 C 105.316406 135.792969 111.824219 142.761719 112.230469 143.035156 C 112.171875 142.023438 112.078125 141.230469 112.082031 140.4375 C 112.09375 136.535156 112.101562 132.632812 112.160156 128.730469 C 112.191406 126.964844 113.011719 125.820312 114.496094 125.09375 C 117.765625 123.488281 121.210938 122.953125 124.714844 122.691406 C 125.914062 122.601562 127.121094 122.464844 128.324219 122.472656 C 130.617188 122.484375 132.910156 122.59375 135.203125 122.660156 C 135.804688 122.675781 136.15625 123.035156 136.421875 123.609375 C 137.230469 125.363281 138.085938 127.089844 138.878906 128.855469 C 140.085938 131.550781 140.789062 134.414062 140.953125 137.425781 C 141.03125 138.890625 141.089844 140.355469 141.066406 141.824219 C 141.039062 143.707031 141.046875 145.609375 140.820312 147.476562 C 139.992188 154.304688 138.667969 161.019531 136.980469 167.648438 C 136.816406 168.304688 136.667969 168.960938 136.460938 169.847656 C 139.523438 167.871094 142.1875 165.804688 144.074219 162.683594" fill="#fff" fill-rule="evenodd"/></g><g id="change2_9"><path d="M 155.34375 163.613281 C 155.308594 164.265625 155.257812 164.867188 155.238281 165.46875 C 155.089844 171.1875 153.800781 176.484375 150.566406 181.054688 C 149.214844 182.964844 145.972656 187.28125 145.863281 187.203125 C 145.910156 186.859375 145.941406 186.511719 146.003906 186.171875 C 146.652344 182.683594 147.390625 179.210938 147.9375 175.699219 C 148.300781 173.351562 148.46875 170.957031 148.601562 168.578125 C 148.890625 163.554688 149.097656 158.523438 149.347656 153.496094 C 149.449219 151.492188 149.40625 149.496094 149.011719 147.414062 C 148.835938 147.746094 148.660156 148.074219 148.484375 148.402344 C 147.226562 150.738281 144.117188 156.230469 143.742188 156.585938 C 145.304688 149.125 146.289062 141.648438 145.527344 133.949219 C 151.015625 142.808594 155.925781 152.109375 162.09375 160.488281 C 162.324219 156.921875 162.09375 153.402344 161.480469 149.917969 C 160.871094 146.445312 159.363281 143.339844 158.039062 140.160156 C 158.109375 140.113281 159.128906 141.015625 159.535156 141.542969 C 161.074219 143.554688 162.632812 145.550781 164.128906 147.601562 C 165.957031 150.105469 167.828125 152.585938 169.507812 155.214844 C 171.917969 158.988281 175.089844 161.371094 179.109375 162.410156 C 179.800781 162.589844 180.488281 162.765625 181.289062 162.757812 C 180.9375 162.347656 180.601562 161.914062 180.234375 161.523438 C 177.71875 158.832031 175.546875 155.839844 173.824219 152.453125 C 172.722656 150.292969 171.996094 147.980469 171.523438 145.511719 C 172.238281 145.511719 172.867188 145.519531 173.5 145.511719 C 177.753906 145.441406 182.003906 145.363281 186.242188 144.820312 C 189.898438 144.355469 193.261719 143.097656 196.285156 140.691406 C 198.277344 139.109375 202.890625 135.839844 203.058594 135.488281 C 201.265625 135.9375 199.460938 136.324219 197.683594 136.847656 C 194.019531 137.917969 190.304688 138.441406 186.511719 138.257812 C 184.027344 138.136719 181.53125 138.25 179.066406 137.96875 C 176.382812 137.664062 169.6875 135.011719 169.699219 134.921875 C 170.160156 134.851562 170.617188 134.757812 171.078125 134.71875 C 174.464844 134.449219 177.828125 133.976562 181.089844 132.914062 C 185.453125 131.496094 193.714844 125.902344 193.878906 125.449219 C 192.503906 125.78125 191.117188 126.070312 189.753906 126.457031 C 184.035156 128.085938 178.222656 128.867188 172.324219 128.855469 C 168.707031 128.847656 165.089844 128.867188 161.476562 128.855469 C 161.070312 128.851562 160.625 128.8125 160.269531 128.625 C 157.394531 127.089844 154.539062 125.511719 151.628906 123.921875 C 154.339844 123.765625 157.046875 124.167969 159.753906 124.089844 C 162.449219 124.011719 165.140625 123.925781 167.871094 123.71875 C 166.261719 122.386719 164.417969 121.59375 162.625 120.707031 C 160.847656 119.828125 159.03125 119.035156 157.128906 118.15625 C 158.289062 117.785156 159.34375 117.785156 160.402344 118.164062 C 161.902344 118.707031 163.394531 119.308594 164.914062 119.78125 C 168.605469 120.929688 172.316406 122.011719 176.015625 123.136719 C 178.601562 123.917969 181.082031 123.371094 183.554688 122.511719 C 185.925781 121.691406 188.304688 120.902344 190.683594 120.109375 C 192.351562 119.550781 195.722656 117.429688 195.824219 117.054688 C 194.535156 117.183594 193.242188 117.269531 191.957031 117.445312 C 189.082031 117.839844 186.210938 118.257812 183.339844 118.707031 C 181.542969 118.988281 179.8125 118.824219 178.148438 117.980469 C 177.15625 117.476562 176.164062 116.980469 175.171875 116.46875 C 175.019531 116.390625 174.886719 116.25 174.507812 115.949219 C 176.003906 115.714844 177.246094 115.511719 178.492188 115.324219 C 184.046875 114.488281 189.613281 113.714844 195.085938 112.308594 C 197.878906 111.589844 200.617188 110.695312 203.179688 109.226562 C 203.527344 109.023438 203.871094 108.808594 204.214844 108.601562 C 204.191406 108.496094 204.171875 108.398438 204.148438 108.296875 C 203.378906 108.296875 202.609375 108.28125 201.839844 108.296875 C 198.730469 108.367188 195.679688 107.863281 192.667969 107.097656 C 186.578125 105.550781 180.519531 103.855469 174.414062 102.390625 C 170.1875 101.375 165.902344 100.679688 161.5625 100.441406 C 158.488281 100.269531 155.527344 99.445312 152.742188 98 C 150.597656 96.886719 148.515625 95.617188 146.425781 94.375 C 144.679688 93.339844 143.523438 91.808594 143.097656 89.570312 C 142.757812 87.769531 142.148438 86.03125 141.769531 84.238281 C 141.078125 80.972656 139.449219 78.355469 137.394531 76.011719 C 136.839844 75.382812 136.238281 74.8125 135.671875 74.195312 C 135.320312 73.816406 134.96875 73.429688 134.671875 73 C 134.046875 72.085938 134.191406 71.339844 135.128906 70.894531 C 136.371094 70.300781 137.65625 69.816406 138.90625 69.242188 C 139.8125 68.828125 140.714844 68.394531 141.566406 67.871094 C 145.058594 65.71875 148.5 63.460938 152.015625 61.359375 C 161.144531 55.917969 170.808594 53.242188 181.242188 53.980469 C 188.441406 54.492188 195.511719 55.886719 202.597656 57.21875 C 207.792969 58.195312 212.960938 59.359375 218.164062 60.269531 C 221.285156 60.8125 224.449219 61.050781 227.597656 61.375 C 231.832031 61.808594 236.09375 62.027344 240.300781 62.660156 C 243.269531 63.105469 246.199219 63.992188 249.101562 64.855469 C 254.421875 66.429688 266.945312 68.792969 267.921875 68.980469 C 267.398438 69.636719 262.289062 71.527344 260.21875 71.820312 C 257.53125 72.203125 254.855469 72.691406 252.171875 73.109375 C 251.171875 73.265625 250.160156 73.339844 249.113281 73.621094 C 249.355469 73.753906 249.589844 73.90625 249.839844 74.019531 C 253.878906 75.859375 257.9375 77.644531 261.949219 79.550781 C 265.578125 81.273438 268.859375 83.664062 271.828125 86.546875 C 273.535156 88.199219 275.09375 90.039062 276.375 92.128906 C 278.878906 96.214844 281.402344 100.289062 283.796875 104.460938 C 285.148438 106.820312 286.257812 109.355469 287.414062 111.921875 C 282.269531 110.046875 277.109375 108.355469 271.820312 107.214844 C 266.503906 106.066406 261.160156 105.097656 255.679688 104.457031 C 255.792969 105.082031 256.214844 105.222656 256.519531 105.460938 C 259.230469 107.578125 262.039062 109.5625 264.648438 111.828125 C 268.058594 114.796875 271.402344 117.878906 274.617188 121.101562 C 278.203125 124.691406 281.71875 128.378906 285.066406 132.238281 C 287.675781 135.246094 292.4375 141.925781 292.449219 142.109375 C 291.984375 141.859375 291.546875 141.652344 291.128906 141.40625 C 287.476562 139.273438 283.597656 137.8125 279.664062 136.492188 C 271.851562 133.867188 253.351562 128.398438 253.308594 128.488281 C 253.683594 128.808594 254.039062 129.148438 254.429688 129.441406 C 257.578125 131.816406 260.738281 134.171875 263.882812 136.558594 C 267.214844 139.082031 270.484375 141.707031 273.863281 144.148438 C 277.214844 146.570312 280.003906 149.6875 282.851562 152.738281 C 283.449219 153.371094 283.972656 154.097656 284.484375 154.824219 C 288.324219 160.28125 297.925781 178.980469 298.117188 179.53125 C 297 178.867188 287.195312 172.226562 283.160156 169.453125 C 280.886719 167.890625 278.558594 166.421875 276.300781 164.835938 C 270.152344 160.519531 255.96875 156.320312 255.867188 156.40625 C 256.179688 156.664062 256.464844 156.921875 256.769531 157.148438 C 260.738281 160.113281 264.703125 163.097656 268.6875 166.039062 C 272.273438 168.683594 275.011719 172.222656 277.371094 176.160156 C 280.238281 180.945312 282.839844 185.90625 285.21875 191.011719 C 286.882812 194.582031 290.058594 202.0625 290.097656 202.339844 C 289.828125 202.183594 283.414062 197.941406 280.253906 196.171875 C 274.003906 192.679688 267.460938 190.078125 260.769531 187.894531 C 256.871094 186.621094 253.003906 185.222656 249.117188 183.90625 C 248.058594 183.550781 247.101562 183.039062 246.234375 182.257812 C 244.511719 180.71875 242.539062 179.683594 240.46875 178.871094 C 240.050781 178.707031 239.609375 178.609375 239.03125 178.441406 C 239.957031 180.183594 240.886719 181.726562 241.617188 183.378906 C 242.367188 185.0625 242.972656 186.839844 243.542969 188.613281 C 244.101562 190.347656 244.597656 192.113281 244.996094 193.902344 C 245.40625 195.730469 245.671875 197.601562 245.972656 199.460938 C 246.269531 201.304688 246.628906 203.144531 246.46875 205.328125 C 246.117188 204.835938 245.894531 204.53125 245.679688 204.222656 C 244.023438 201.832031 242.441406 199.378906 240.699219 197.066406 C 239 194.816406 237.070312 192.835938 234.695312 191.417969 C 232.042969 189.835938 229.402344 188.207031 226.859375 186.410156 C 223.941406 184.34375 221.164062 182.015625 218.273438 179.898438 C 214.777344 177.335938 211.371094 174.628906 208.308594 171.445312 C 206.246094 169.304688 204.296875 167.019531 202.296875 164.804688 C 201.960938 164.429688 201.613281 164.0625 201.269531 163.695312 C 201.195312 163.742188 201.128906 163.785156 201.058594 163.835938 C 201.3125 164.730469 201.511719 165.652344 201.824219 166.523438 C 203.121094 170.105469 204.625 173.574219 206.339844 176.941406 C 208.320312 180.847656 210.230469 184.800781 212.0625 188.792969 C 212.859375 190.539062 213.378906 192.441406 214.046875 194.324219 C 214.574219 194.035156 214.734375 193.4375 214.8125 192.902344 C 215.078125 191.089844 215.289062 189.261719 215.472656 187.433594 C 215.542969 186.738281 215.484375 186.027344 215.484375 185.050781 C 216.195312 185.601562 216.679688 186.050781 217.222656 186.375 C 218.882812 187.371094 219.925781 188.882812 220.675781 190.804688 C 221.609375 193.191406 222.546875 195.554688 222.996094 198.136719 C 223.53125 201.234375 223.550781 204.328125 222.914062 207.386719 C 222.273438 210.453125 219.964844 216.457031 219.800781 216.699219 C 219.628906 216.128906 219.492188 215.667969 219.351562 215.207031 C 217.617188 209.390625 215.1875 203.96875 211.898438 199.046875 C 209.996094 196.199219 207.71875 193.753906 205.257812 191.523438 C 202.363281 188.90625 196.324219 183.640625 196.074219 183.5 C 196.074219 184.109375 196.058594 184.628906 196.078125 185.140625 C 196.191406 188.429688 195.953125 191.683594 195.296875 194.894531 C 194.511719 198.769531 193.230469 202.433594 191.492188 205.890625 C 190.265625 208.339844 188.980469 210.757812 187.703125 213.183594 C 187.515625 213.539062 187.269531 213.859375 186.898438 214.417969 C 186.117188 204.84375 184.003906 195.945312 179.410156 187.738281 C 179.828125 187.71875 181.183594 188.148438 181.621094 188.390625 C 184.429688 189.960938 187.445312 190.15625 190.699219 190.140625 C 190.46875 189.773438 189.167969 188.507812 188.617188 188.152344 C 183.589844 184.898438 179.160156 180.832031 175.339844 175.953125 C 174.800781 175.261719 174.285156 174.503906 173.933594 173.683594 C 172.566406 170.464844 171.273438 167.203125 169.9375 163.964844 C 169.613281 163.179688 169.242188 162.421875 168.695312 161.71875 C 168.476562 163.992188 168.234375 166.261719 168.050781 168.539062 C 167.980469 169.410156 167.953125 170.304688 168.054688 171.167969 C 168.320312 173.355469 168.921875 175.414062 170.109375 177.222656 C 170.734375 178.171875 171.238281 179.21875 171.898438 180.125 C 172.519531 180.976562 172.59375 181.894531 172.632812 182.925781 C 172.757812 186.109375 171.871094 188.914062 170.449219 191.632812 C 168.402344 195.535156 162.394531 203.109375 162.226562 203.191406 C 162.199219 202.800781 162.164062 202.449219 162.15625 202.101562 C 162.046875 197.191406 161.988281 192.277344 161.484375 187.390625 C 160.660156 179.367188 158.71875 171.6875 155.824219 164.292969 C 155.75 164.105469 155.507812 163.699219 155.34375 163.613281 Z M 153.785156 91.425781 C 154.476562 91.738281 155.171875 92.027344 155.847656 92.363281 C 159.8125 94.339844 163.859375 95.976562 168.203125 96.589844 C 170.832031 96.960938 173.449219 97.164062 176.050781 96.398438 C 177.105469 96.085938 178.167969 95.789062 179.179688 95.351562 C 181.492188 94.347656 186.878906 91.394531 186.84375 91.300781 C 182.800781 91.769531 178.753906 92.230469 174.710938 92.699219 C 176.003906 90.789062 176.664062 88.695312 176.996094 86.503906 C 177.328125 84.289062 177.464844 82.035156 177.699219 79.6875 C 179.714844 78.726562 181.886719 78.1875 184.1875 78.359375 C 186.027344 78.496094 187.867188 78.636719 189.707031 78.773438 C 189.941406 78.789062 190.179688 78.773438 190.414062 78.773438 C 189.386719 77.886719 188.304688 77.242188 187.222656 76.589844 C 184.804688 75.132812 182.226562 74.308594 179.488281 74.058594 C 177.257812 73.855469 175.039062 73.875 172.878906 74.5625 C 168.609375 75.914062 164.367188 77.363281 160.101562 78.714844 C 156.847656 79.742188 153.585938 80.753906 150.296875 81.628906 C 147.78125 82.296875 147.019531 81.882812 145.8125 79.203125 C 145.691406 78.941406 145.574219 78.671875 145.496094 78.394531 C 145.089844 76.957031 144.695312 75.515625 144.292969 74.074219 C 144.175781 73.652344 144.054688 73.234375 143.933594 72.816406 C 143.625 73.191406 143.515625 73.566406 143.417969 73.949219 C 142.800781 76.351562 142.738281 78.824219 142.671875 81.300781 C 142.628906 82.871094 142.984375 84.28125 143.683594 85.617188 C 145.488281 89.085938 147.996094 91.863281 150.765625 94.339844 C 153.0625 96.394531 155.949219 96.617188 158.769531 97.074219 C 156.875 95.472656 155.105469 93.753906 153.785156 91.425781 Z M 226.507812 152.046875 C 223.839844 150.625 221.203125 149.113281 218.488281 147.808594 C 214.972656 146.109375 211.128906 144.921875 209.8125 144.996094 C 210.742188 145.738281 211.542969 146.425781 212.382812 147.042969 C 214.617188 148.683594 216.921875 150.207031 219.097656 151.929688 C 224.894531 156.515625 230.027344 161.957031 234.949219 167.648438 C 236.695312 169.667969 238.246094 171.898438 239.433594 174.410156 C 239.539062 174.640625 239.6875 174.84375 239.816406 175.054688 C 239.441406 169.199219 237.394531 164.007812 234.828125 158.882812 C 236.730469 159.359375 238.324219 160.074219 239.722656 161.261719 C 240.765625 162.152344 241.808594 163.0625 242.769531 164.0625 C 246.296875 167.722656 249.789062 171.425781 253.300781 175.109375 C 253.578125 175.402344 253.886719 175.667969 254.183594 175.945312 C 254.148438 175.394531 253.96875 174.988281 253.804688 174.582031 C 253.621094 174.121094 253.429688 173.664062 253.261719 173.195312 C 251.355469 167.828125 248.667969 163.023438 245.078125 158.835938 C 243.789062 157.328125 242.414062 156.003906 240.796875 154.976562 C 236.121094 152.003906 231.464844 149 226.773438 146.058594 C 225.101562 145.007812 220.820312 142.640625 220.277344 142.78125 C 222.230469 146.042969 224.96875 148.519531 226.507812 152.046875 Z M 207.347656 96.398438 C 208.210938 96.398438 209.078125 96.339844 209.933594 96.414062 C 212.03125 96.597656 214.140625 96.726562 216.21875 97.085938 C 221.742188 98.03125 227.007812 100.085938 232.316406 101.941406 C 234.417969 102.675781 236.546875 103.328125 238.65625 104.019531 C 237.539062 102.15625 236.105469 100.742188 234.53125 99.53125 C 232.949219 98.320312 231.363281 97.097656 229.671875 96.105469 C 228 95.128906 226.191406 94.4375 224.269531 93.539062 C 227.8125 92.660156 231.160156 91.984375 234.609375 92.09375 C 238.074219 92.199219 241.449219 93.011719 244.890625 93.546875 C 243.894531 92.640625 242.867188 91.820312 241.8125 91.042969 C 239.054688 89.011719 236.128906 87.304688 232.789062 87.023438 C 230.289062 86.8125 227.75 86.898438 225.242188 87.085938 C 223.023438 87.246094 220.878906 87.984375 218.828125 88.964844 C 215.21875 90.679688 211.804688 92.804688 208.507812 95.167969 C 208.078125 95.476562 207.3125 96.308594 207.347656 96.398438 Z M 231.730469 81.382812 C 231.726562 81.238281 224.355469 78.605469 220.636719 77.585938 C 216.34375 76.398438 212.328125 77.574219 208.613281 79.972656 C 205.613281 81.90625 200.550781 88.871094 200.605469 88.941406 C 205.453125 86.382812 210.578125 84.730469 215.734375 83.1875 C 220.976562 81.613281 226.347656 81.476562 231.730469 81.382812 Z M 176.941406 149.0625 C 177.011719 149.714844 177.039062 150.171875 177.113281 150.621094 C 177.515625 153.066406 178.304688 155.269531 180.070312 156.949219 C 182.054688 158.832031 184.304688 159.570312 186.78125 158.761719 C 189.628906 157.828125 192.40625 156.652344 195.214844 155.578125 C 195.4375 155.488281 195.644531 155.34375 196.101562 155.089844 C 194.550781 154.824219 193.269531 154.589844 191.980469 154.394531 C 189.671875 154.042969 187.355469 153.78125 185.054688 153.363281 C 182.695312 152.933594 180.464844 152.074219 178.527344 150.441406 C 178.050781 150.035156 177.585938 149.621094 176.941406 149.0625" fill="#fff" fill-rule="evenodd"/></g><g id="change4_1"><path d="M 172.136719 106.824219 C 171.699219 106.863281 171.265625 106.933594 170.824219 106.933594 C 167.4375 106.96875 164.046875 107.007812 160.660156 107.015625 C 155.199219 107.027344 149.738281 107.03125 144.277344 107.015625 C 140.617188 107.007812 136.972656 107.246094 133.351562 107.808594 C 130.550781 108.238281 128.125 109.648438 126.078125 111.8125 C 125.484375 112.441406 124.953125 112.5625 124.175781 112.359375 C 122.53125 111.925781 120.894531 111.441406 119.171875 111.507812 C 115.921875 111.628906 113.347656 113.140625 111.554688 116.125 C 110.8125 117.363281 110.214844 118.761719 109.785156 120.175781 C 109.023438 122.6875 108.644531 125.300781 108.613281 127.96875 C 108.597656 129.453125 108.496094 130.941406 108.242188 132.476562 C 108.132812 132.277344 105.34375 125.546875 104.371094 122.21875 C 102.707031 116.550781 102.667969 110.882812 103.644531 105.070312 C 104.644531 99.097656 106.960938 93.867188 110.34375 89.179688 C 112.257812 86.535156 114.523438 84.414062 117.34375 82.972656 C 122.105469 80.53125 127.035156 78.601562 131.964844 76.65625 C 132.710938 76.359375 133.242188 76.46875 133.761719 77.101562 C 134.269531 77.71875 134.835938 78.28125 135.359375 78.882812 C 136.582031 80.289062 137.550781 81.863281 137.953125 83.8125 C 138.523438 86.550781 139.175781 89.269531 139.695312 92.015625 C 140.171875 94.542969 141.363281 96.433594 143.226562 97.921875 C 146.363281 100.425781 149.789062 102.082031 153.554688 103.058594 C 157.597656 104.109375 161.710938 104.558594 165.792969 105.246094 C 167.90625 105.605469 172.128906 106.695312 172.136719 106.824219 Z M 133.226562 94.53125 C 133.140625 94.308594 130.90625 91.304688 129.773438 89.964844 C 128.628906 88.609375 127.335938 87.460938 125.660156 87 C 124.53125 86.6875 123.878906 87.105469 123.503906 88.347656 C 123.027344 89.941406 123.777344 91.972656 125.191406 92.859375 C 127.675781 94.414062 130.417969 94.382812 133.226562 94.53125" fill="#f8a80d" fill-rule="evenodd"/></g><g id="change4_2"><path d="M 140.519531 115.398438 C 141.070312 115.625 141.613281 115.886719 142.175781 116.070312 C 144.773438 116.914062 151.164062 119.0625 151.703125 119.539062 C 150.445312 119.359375 149.1875 119.195312 147.933594 119.007812 C 142.253906 118.160156 136.566406 117.507812 130.828125 117.695312 C 125.4375 117.871094 120.09375 118.523438 114.882812 120.164062 C 114.488281 120.289062 114.089844 120.390625 113.683594 120.507812 C 113.59375 118.8125 114.808594 116.605469 116.289062 115.679688 C 117.589844 114.863281 118.992188 114.582031 120.433594 114.90625 C 122.164062 115.296875 123.882812 115.769531 125.570312 116.332031 C 126.273438 116.566406 126.71875 116.519531 127.269531 115.949219 C 128.289062 114.898438 129.386719 113.933594 130.496094 113 C 131.699219 111.984375 133.113281 111.472656 134.585938 111.332031 C 137.285156 111.078125 139.992188 110.84375 142.699219 110.808594 C 149.25 110.726562 155.804688 110.851562 162.355469 110.726562 C 166.5625 110.644531 170.773438 110.300781 174.976562 110.003906 C 176.171875 109.917969 179.128906 109.28125 179.449219 109.332031 C 178.09375 110.441406 176.675781 111.4375 175.015625 111.816406 C 173.578125 112.140625 172.121094 112.390625 170.664062 112.519531 C 164.808594 113.027344 158.953125 113.488281 153.09375 113.941406 C 151.855469 114.035156 150.609375 113.996094 149.371094 114.074219 C 147.039062 114.222656 140.523438 115.277344 140.519531 115.398438" fill="#f8a80d" fill-rule="evenodd"/></g><g id="change4_3"><path d="M 173.386719 81.5625 C 173.214844 84.816406 171.996094 87.300781 169.871094 89.273438 C 168.945312 90.132812 167.914062 90.710938 166.699219 90.671875 C 165.617188 90.636719 162.339844 89.769531 161.675781 89.410156 C 165.277344 86.03125 169.066406 83.417969 173.386719 81.5625" fill="#f8a80d" fill-rule="evenodd"/></g><g id="change5_1"><path d="M 106.625 129.746094 C 105.75 127.589844 106.019531 124.777344 105.910156 122.238281 C 105.785156 119.414062 105.730469 116.960938 106.519531 114.25 C 107.933594 109.382812 110.558594 104.378906 114.789062 102.066406 C 116.925781 100.898438 119.171875 100.648438 121.527344 100.386719 C 123.019531 100.21875 127.386719 100.304688 127.691406 97.957031 C 127.890625 96.414062 124.46875 94.535156 123.636719 93.195312 C 122.691406 91.671875 121.289062 88.1875 122.203125 86.566406 C 123.945312 83.484375 129.242188 85.78125 131.976562 85.375 C 133.847656 85.097656 136.347656 84.621094 136.003906 81.976562 C 135.761719 80.078125 135.261719 77.726562 134.695312 75.960938 C 138.789062 79.699219 139.5 85.878906 141.59375 90.769531 C 143.5625 95.371094 148.53125 97.292969 152.625 98.910156 C 157.722656 100.929688 163.726562 101.53125 168.671875 104.148438 C 170.855469 105.304688 173.09375 105.703125 175.402344 106.296875 C 176.695312 106.628906 177.945312 107.40625 179.234375 107.90625 C 180.3125 108.320312 181.746094 108.472656 182.585938 109.296875 C 181.09375 111.089844 176.949219 112.460938 174.828125 113.136719 C 172.285156 113.945312 169.351562 114.441406 166.695312 114.726562 C 161.742188 115.261719 156.601562 115.046875 151.761719 116.007812 C 151.382812 116.082031 151 116.105469 150.625 116.199219 C 151.8125 117.757812 153.472656 119.261719 154.324219 121.085938 C 151.84375 121.277344 149.433594 120.957031 147.035156 120.800781 C 143.804688 120.585938 140.496094 120.480469 137.253906 120.15625 C 131.449219 119.578125 125.71875 119.84375 119.953125 120.480469 C 117.1875 120.785156 112.835938 121.707031 111.175781 124.589844 C 110.320312 126.074219 110.488281 128.472656 110.070312 130.226562 C 109.613281 132.128906 109.703125 133.941406 109.613281 135.953125 C 108.6875 136.109375 106.542969 132.824219 106.910156 131.820312" fill="#d84c1f"/></g><g id="change6_1"><path d="M 104.511719 123.675781 C 104.195312 119.492188 103.691406 115.285156 104.410156 111.09375 C 104.769531 108.992188 104.992188 106.929688 105.589844 104.863281 C 106.296875 102.425781 107.378906 100.207031 108.460938 97.910156 C 110.378906 93.851562 113.019531 89.871094 115.984375 86.742188 C 117.523438 85.117188 119.351562 83.722656 121.285156 82.722656 C 124.121094 81.253906 126.757812 79.101562 129.253906 76.96875 C 129.957031 76.367188 130.746094 75.84375 131.453125 75.265625 C 129.601562 74.609375 127.414062 75.894531 125.816406 76.820312 C 123.328125 78.261719 120.914062 79.871094 118.457031 81.378906 C 115.433594 83.230469 112.359375 85.296875 109.804688 87.871094 C 105.757812 91.949219 103.753906 97.390625 102.472656 103.15625 C 101.789062 106.234375 101.066406 109.320312 101.289062 112.535156 C 101.414062 114.347656 101.410156 117.515625 102.578125 118.882812" fill="#fcd486"/></g><g id="change5_2"><path d="M 164.15625 91.003906 C 164.742188 89.792969 165.339844 88.757812 166.289062 87.808594 C 167.34375 86.753906 168.457031 85.933594 169.601562 84.992188 C 170.957031 83.878906 172.300781 82.824219 173.738281 81.796875 C 174.089844 81.546875 175.039062 81.109375 174.6875 80.613281 C 173.863281 79.445312 170.152344 81.6875 169.386719 82.074219 C 167.0625 83.246094 164.613281 84.742188 162.722656 86.691406 C 161.824219 87.613281 160.789062 88.785156 160.871094 90.273438 C 161.570312 90.460938 161.941406 90.964844 162.507812 91.402344" fill="#d84c1f"/></g><g id="change2_10"><path d="M 171.753906 83.039062 C 171.0625 82.878906 170.867188 84.414062 170.773438 84.953125 C 170.726562 85.238281 170.523438 85.839844 170.390625 86.332031 C 170.144531 86.804688 169.894531 87.265625 169.75 87.738281 C 170.5 87.710938 171.464844 86.382812 171.8125 85.597656 C 171.867188 85.484375 171.910156 85.3125 171.945312 85.109375 C 172.136719 84.523438 172.324219 83.179688 171.753906 83.039062" fill="#fff"/></g><g id="change7_1"><path d="M 198.097656 91.101562 C 201.722656 89.21875 207.269531 87.109375 211.640625 88.144531 C 209.351562 89.214844 207.085938 91.078125 205.207031 92.523438 C 202.679688 94.464844 199.046875 96.628906 197.199219 99.359375 C 199.019531 99.71875 201.191406 99.066406 203.058594 99.070312 C 204.664062 99.078125 206.273438 99.074219 207.878906 99.070312 C 210.214844 99.335938 216.320312 100.167969 228.484375 103.5625 C 231.164062 104.632812 233.949219 105.484375 236.59375 106.695312 C 238.714844 107.667969 240.769531 108.773438 242.921875 109.582031 C 245.011719 110.367188 247.433594 111.066406 249.300781 112.367188 C 247.992188 110.78125 246.683594 109.214844 245.351562 107.675781 C 242.84375 103.925781 234.421875 97 233.605469 94.945312 C 235.878906 95.65625 238.789062 96.109375 241.253906 96.660156 C 244.4375 97.371094 248.816406 98.980469 252.039062 98.46875 C 250.964844 95.738281 248.085938 93.199219 246.257812 90.84375 C 244.652344 88.769531 242.578125 87.144531 240.25 86.050781 C 234.628906 83.410156 227.734375 85.28125 221.820312 85.339844 C 226.988281 83.785156 232.453125 82.394531 237.800781 82.46875 C 231.941406 77.96875 224.054688 74.070312 217.027344 74.070312 C 208.542969 74.070312 202.667969 80.988281 198.976562 88.6875 L 198.328125 90.84375 C 198.261719 90.960938 197.800781 91.113281 198.097656 91.101562" fill="#b7b7b7"/></g><g id="change7_2"><path d="M 259.800781 73.828125 C 263.65625 73.25 272.386719 70.992188 274.199219 67.359375 L 265.816406 65.921875 C 263.25 67.691406 260.933594 69.558594 258.074219 70.71875 C 255.339844 71.828125 251.789062 72.046875 249.285156 73.535156 C 252.703125 73.84375 256.417969 74.339844 259.800781 73.828125" fill="#b7b7b7"/></g><g id="change7_3"><path d="M 263.652344 103.480469 C 261.039062 103.621094 258.117188 103.449219 255.714844 104.503906 L 265.386719 106.980469 C 265.914062 107.269531 266.664062 107.175781 267.242188 107.292969 C 268.472656 107.542969 269.664062 107.988281 270.886719 108.273438 C 273.722656 108.941406 276.539062 109.78125 279.339844 110.632812 C 281.804688 111.378906 284.339844 111.804688 286.753906 112.714844 C 288.070312 113.214844 289.824219 114.023438 291.242188 113.839844 C 291.273438 113.152344 290.8125 112.585938 290.449219 112.078125 C 289.628906 110.933594 288.765625 109.816406 287.894531 108.726562 C 287.363281 108.058594 286.835938 107.839844 286.078125 107.476562 C 283.164062 106.078125 279.65625 105.3125 276.511719 104.804688 C 272.222656 104.109375 267.988281 103.257812 263.652344 103.480469" fill="#b7b7b7"/></g><g id="change7_4"><path d="M 278.410156 132.621094 C 275.683594 131.773438 272.917969 130.984375 270.132812 130.441406 C 264.703125 129.390625 259.191406 128.707031 253.710938 128.707031 L 263.097656 132.304688 C 263.730469 132.351562 264.375 132.761719 264.957031 133.039062 C 266.164062 133.617188 267.273438 134.183594 268.546875 134.617188 C 272.078125 135.835938 275.503906 137.433594 279.007812 138.75 C 283.359375 140.390625 287.636719 142.242188 291.960938 143.972656 C 292.699219 144.265625 295.683594 145.738281 295.980469 144.210938 C 296.09375 143.609375 295.320312 142.253906 295.101562 141.710938 C 294.644531 140.566406 294.066406 139.285156 293.265625 138.382812 C 292.675781 137.71875 291.894531 137.1875 291.101562 136.839844 C 287.03125 135.058594 282.621094 133.929688 278.410156 132.621094" fill="#b7b7b7"/></g><g id="change7_5"><path d="M 249.316406 112.378906 C 249.3125 112.375 249.308594 112.371094 249.300781 112.367188 C 249.304688 112.371094 249.308594 112.378906 249.3125 112.382812 C 249.371094 112.4375 249.371094 112.4375 249.316406 112.378906" fill="#b7b7b7"/></g><g id="change7_6"><path d="M 298.765625 176.511719 C 297.511719 174.679688 296.886719 172.625 295.335938 171.242188 C 292.324219 168.5625 288.636719 166.570312 285.164062 164.769531 C 276.011719 160.023438 266.617188 156.425781 256.503906 156.425781 L 267.964844 162.496094 C 270.804688 164.234375 274.117188 165.214844 276.992188 166.84375 C 279.710938 168.390625 282.074219 170.636719 284.617188 172.570312 C 286.917969 174.320312 289.574219 175.328125 291.894531 177.070312 C 293.761719 178.472656 295.671875 179.714844 297.597656 180.996094 C 298.785156 181.789062 300.746094 183.464844 302.191406 183.242188 C 302.050781 180.289062 300.355469 178.832031 298.765625 176.511719" fill="#b7b7b7"/></g><g id="change7_7"><path d="M 289.027344 195.71875 C 288.511719 195.054688 287.296875 194.730469 286.566406 194.257812 C 284.535156 192.9375 282.457031 191.820312 280.289062 190.808594 C 277.65625 189.578125 274.988281 188.515625 272.308594 187.527344 C 269.890625 183.640625 267.222656 179.949219 264.65625 176.238281 C 261.40625 171.527344 258.726562 166.945312 254.851562 162.878906 C 251.398438 159.257812 248.445312 155.148438 244.691406 151.875 C 243.265625 150.632812 241.078125 149.105469 238.820312 147.949219 C 235.746094 145.964844 232.324219 144.328125 229.136719 142.695312 C 226.652344 141.421875 215.757812 137.851562 214.535156 137.925781 C 215.171875 138.96875 216.246094 139.695312 216.925781 140.757812 C 217.90625 142.289062 218.429688 144.183594 219.632812 145.507812 C 217.636719 144.28125 215.582031 143.167969 213.378906 142.40625 C 211.5625 141.78125 210.039062 141.664062 208.457031 141.703125 C 208.894531 141.246094 209.320312 140.773438 209.722656 140.269531 C 213.433594 135.5625 217.152344 130.734375 220.617188 125.867188 C 215.878906 125.90625 198.351562 129.894531 196.410156 128.042969 C 200.378906 127.199219 204.296875 124.527344 208.003906 122.714844 C 211.515625 121 221.386719 114.121094 222.597656 112.460938 C 220.746094 112.140625 210.453125 114.296875 207.390625 114.328125 C 204.902344 114.351562 201.617188 115.242188 199.253906 114.269531 C 201.25 113.21875 203.398438 112.34375 205.464844 111.277344 C 207.851562 110.050781 213.292969 108.285156 214.648438 105.738281 C 205.78125 105.25 197.0625 104.929688 188.660156 103.070312 C 183.300781 101.886719 178.074219 99.925781 172.75 98.507812 C 176.574219 98.484375 179.925781 97.816406 183.503906 96.300781 C 186.539062 95.015625 191.535156 91.292969 191.632812 87.285156 C 189.046875 87.554688 186.394531 88.667969 183.757812 89.171875 C 181.925781 89.519531 180.050781 89.703125 178.191406 89.925781 C 178.308594 89.742188 178.414062 89.5625 178.507812 89.398438 C 179.664062 87.359375 180.507812 84.300781 180.710938 81.550781 C 184.613281 80.679688 196.539062 84.304688 198.359375 84.765625 C 194.445312 82.890625 190.464844 77.921875 186.519531 75.296875 C 180.050781 70.996094 174.433594 72.101562 167.59375 74.566406 C 164.367188 75.734375 161.003906 76.714844 157.925781 77.828125 C 156.996094 78.164062 155.902344 78.558594 154.746094 78.902344 C 152.972656 79.046875 151.238281 79.105469 149.96875 78.382812 C 146.480469 76.390625 146.347656 71.804688 144.644531 68.394531 C 142.691406 71.253906 140.949219 75.257812 141.125 79.027344 C 138.253906 76.449219 135.964844 73.226562 133.023438 70.664062 C 133.0625 70.425781 133.148438 70.238281 133.203125 69.996094 L 132.558594 70.472656 C 132.027344 72.601562 137.136719 77.828125 138.304688 79.816406 C 139.402344 81.679688 140.675781 83.410156 141.320312 85.570312 C 141.882812 87.46875 141.824219 89.402344 142.234375 91.324219 C 143.277344 96.226562 146.046875 96.53125 149.742188 98.339844 C 152.242188 99.558594 155.460938 100.734375 158.578125 101.105469 C 160.640625 103.324219 165.535156 103.175781 168.9375 102.925781 C 169.617188 103.21875 170.261719 103.5 170.816406 103.785156 C 173.785156 105.296875 176.867188 105.589844 179.847656 106.835938 C 181.128906 107.371094 184.367188 108.714844 183.453125 110.925781 C 182.777344 112.566406 179.144531 112.578125 177.914062 112.839844 C 173.84375 113.707031 170.003906 115.089844 165.871094 115.285156 C 161.871094 115.480469 157.65625 115.117188 153.851562 116.53125 C 155.074219 119.242188 156.59375 119.941406 153.628906 121.28125 C 150.941406 122.488281 148.265625 124.050781 145.488281 124.914062 C 145.472656 124.976562 145.457031 125.035156 145.441406 125.09375 C 144.636719 127.386719 149.445312 129.175781 150.355469 130.148438 C 151.179688 131.023438 152.429688 133.058594 151.914062 134.46875 C 151.519531 135.554688 150.273438 135.722656 149.359375 136.136719 C 148.183594 134.96875 147.179688 133.597656 148.035156 132.78125 L 144.382812 132.539062 C 146.382812 136.527344 147.816406 140.289062 147.1875 145.242188 C 146.894531 147.566406 145.390625 149.824219 144.105469 152.125 C 143.597656 152.707031 143.078125 154.132812 143.078125 154.132812 C 142.394531 155.679688 141.980469 157.25 142.265625 158.882812 C 143.640625 157.988281 144.652344 157.027344 145.421875 156 L 145.457031 156.023438 C 146.800781 154.078125 147.765625 152.054688 148.414062 149.796875 C 148.648438 148.996094 148.757812 148.070312 148.847656 147.128906 C 151.746094 151.1875 152.527344 157.488281 152.125 162.734375 C 151.8125 166.765625 150.84375 171.097656 149.550781 174.957031 C 148.460938 178.222656 146.578125 181.023438 145.503906 184.316406 C 144.914062 186.121094 143.394531 188.507812 143.769531 190.503906 C 148.515625 189.785156 154.949219 182.09375 155.820312 176.929688 C 156.539062 172.679688 155.6875 168.089844 155.445312 163.894531 C 156.25 164.703125 157.257812 165.375 157.96875 166.332031 C 159.109375 167.859375 159.921875 169.414062 160.761719 171.125 C 161.636719 172.902344 162.394531 174.855469 163.085938 176.84375 C 164.050781 180.367188 164.886719 183.933594 165.234375 187.644531 C 165.492188 190.367188 165.6875 193.371094 165.292969 196.09375 C 164.871094 199.027344 163.679688 201.949219 163.542969 204.886719 C 166.535156 204.226562 169.335938 197.703125 170.980469 195.089844 C 173.035156 191.828125 175.667969 188.09375 176.332031 184.09375 L 177.265625 188.378906 C 177.84375 193.128906 188.953125 192.09375 192.253906 191.84375 C 191.390625 198.394531 188.8125 204.851562 184.714844 209.148438 L 185.289062 219.054688 C 185.300781 219.074219 184.699219 219.417969 185.515625 219.316406 C 191.0625 210.277344 197.15625 201.605469 197.367188 190.34375 C 202.351562 190.566406 207.453125 196.8125 211.269531 199.847656 C 208.398438 195.539062 205.253906 191.652344 201.625 188.050781 C 198.472656 184.917969 194.996094 180.511719 191.351562 178.273438 C 192.589844 182.273438 192.871094 186.988281 192.28125 191.660156 C 190.445312 189.523438 187.90625 188.289062 186.207031 185.804688 C 184.769531 183.703125 183.429688 181.203125 182.480469 178.785156 C 181.398438 176.03125 180.464844 172.894531 179.597656 169.90625 C 184.382812 172.4375 195.304688 178.945312 196.640625 177.347656 C 193.390625 173.730469 186.859375 170.101562 185.246094 165.175781 C 189.140625 164.90625 192.714844 163.902344 196.449219 162.496094 C 197.257812 162.191406 198.15625 161.890625 199.105469 161.578125 C 199.378906 166.777344 200.382812 172.089844 201.695312 176.875 C 203.132812 182.117188 206.109375 185.792969 209.140625 189.960938 C 212.410156 194.453125 214.195312 197.660156 215.160156 203.460938 C 216.332031 210.542969 217.761719 217.644531 218.585938 224.460938 C 222.859375 221.128906 224.332031 211.242188 224.550781 205.703125 C 224.78125 199.914062 223.445312 194.195312 223.734375 188.746094 C 225.375 188.921875 227.609375 190.15625 229.800781 191.679688 C 231.4375 193.132812 233.101562 194.566406 234.808594 195.980469 C 235.464844 196.523438 236.484375 197.472656 237.644531 198.398438 C 239.109375 199.921875 240.480469 201.53125 241.761719 203.324219 C 243.1875 205.316406 244.441406 208.203125 246.0625 210.265625 C 246.070312 210.304688 246.078125 210.339844 246.085938 210.375 C 246.105469 210.375 246.125 210.367188 246.144531 210.367188 C 246.628906 210.972656 247.144531 211.503906 247.714844 211.910156 C 247.75 211.300781 247.820312 210.554688 247.867188 209.769531 C 252.78125 206.441406 245.398438 190.933594 242.109375 183.960938 C 242.558594 184.320312 243.164062 184.578125 244.089844 184.863281 C 247.375 185.886719 250.804688 186.875 254.1875 187.6875 C 256.867188 188.566406 259.503906 189.558594 262.195312 190.453125 C 266.628906 191.933594 270.667969 194.539062 274.996094 196.355469 C 278.84375 197.964844 282.628906 199.800781 286 202.445312 C 287.410156 203.550781 290.050781 206.433594 291.878906 206.257812 C 291.949219 204.382812 291.453125 201.9375 290.753906 200.238281 C 290.273438 199.078125 289.777344 196.679688 289.027344 195.71875 Z M 168.6875 93.058594 C 167.394531 93.421875 164.246094 93.417969 161.773438 93.941406 C 157.753906 90.96875 154.460938 86.71875 149.824219 84.914062 C 150.222656 84.753906 150.675781 84.601562 151.160156 84.445312 C 151.964844 84.390625 152.769531 84.25 153.617188 84.078125 C 157.203125 83.347656 160.519531 81.960938 163.929688 80.609375 C 165.941406 79.808594 168.097656 79.023438 170.214844 78.824219 C 171.972656 78.65625 173.410156 79.121094 174.820312 79.710938 C 174.84375 80.710938 175.117188 81.984375 175.117188 83.355469 C 175.113281 85.652344 174.800781 87.714844 174.101562 89.886719 C 173.984375 90.246094 173.824219 90.617188 173.644531 90.996094 L 172.324219 91.5625 C 171.132812 91.953125 169.992188 92.695312 168.6875 93.058594 Z M 234.511719 185.253906 C 232.027344 183.699219 229.234375 182.742188 226.835938 181.027344 C 218.621094 175.167969 212.0625 166.84375 204.839844 159.585938 C 207.558594 158.511719 210.128906 157.183594 211.804688 155.34375 C 207.964844 155.085938 204.8125 153.933594 201.121094 152.726562 C 199.238281 152.105469 195.65625 151.445312 194.441406 149.554688 C 195.703125 148.421875 197.757812 147.953125 199.660156 147.378906 C 201.46875 148 203.167969 148.765625 204.507812 149.402344 C 208.652344 151.382812 212.722656 153.609375 216.539062 156.683594 C 224.078125 162.742188 229.757812 169.339844 233.9375 178.792969 C 235.183594 181.605469 236.621094 184.265625 238.035156 186.941406 C 236.765625 186.414062 235.523438 185.890625 234.511719 185.253906" fill="#b7b7b7"/></g><g id="change3_3"><path d="M 144.074219 162.683594 C 142.1875 165.804688 139.523438 167.871094 136.460938 169.847656 C 136.667969 168.960938 136.816406 168.304688 136.980469 167.648438 C 138.667969 161.019531 139.992188 154.304688 140.820312 147.476562 C 141.046875 145.609375 141.039062 143.707031 141.066406 141.824219 C 141.089844 140.355469 141.03125 138.890625 140.953125 137.425781 C 140.789062 134.414062 140.085938 131.550781 138.878906 128.855469 C 138.085938 127.089844 137.230469 125.363281 136.421875 123.609375 C 136.15625 123.035156 135.804688 122.675781 135.203125 122.660156 C 132.910156 122.59375 130.617188 122.484375 128.324219 122.472656 C 127.121094 122.464844 125.914062 122.601562 124.714844 122.691406 C 121.210938 122.953125 117.765625 123.488281 114.496094 125.09375 C 113.011719 125.820312 112.191406 126.964844 112.160156 128.730469 C 112.101562 132.632812 112.09375 136.535156 112.082031 140.4375 C 112.078125 141.230469 112.171875 142.023438 112.230469 143.035156 C 111.824219 142.761719 105.316406 135.792969 103.328125 131.578125 C 101.601562 127.910156 100.410156 124.019531 99.617188 119.992188 C 98.863281 116.15625 98.738281 112.253906 99.136719 108.339844 C 99.671875 103.039062 100.890625 97.964844 103.167969 93.234375 C 105.410156 88.566406 108.421875 84.664062 112.277344 81.566406 C 115.519531 78.964844 119.125 77.207031 122.875 75.757812 C 125.078125 74.90625 127.257812 73.976562 129.445312 73.078125 C 129.578125 73.023438 129.703125 72.933594 129.878906 72.828125 C 129.652344 72.351562 129.425781 71.925781 129.238281 71.472656 C 128.441406 69.515625 129.054688 67.988281 130.890625 67.34375 C 131.574219 67.105469 132.261719 66.882812 132.949219 66.679688 C 136.832031 65.550781 140.195312 63.199219 143.621094 61.019531 C 148.859375 57.6875 154.179688 54.546875 159.890625 52.339844 C 164.167969 50.6875 168.519531 49.308594 173.066406 48.988281 C 176.300781 48.757812 179.546875 48.796875 182.769531 49.167969 C 186.847656 49.636719 190.929688 50.136719 194.984375 50.820312 C 200.339844 51.722656 205.664062 52.882812 211.019531 53.8125 C 214.996094 54.503906 219.007812 54.945312 222.996094 55.597656 C 228.105469 56.429688 233.273438 56.5625 238.394531 57.203125 C 241.636719 57.609375 244.867188 58.324219 248.046875 59.164062 C 252.878906 60.441406 257.664062 61.902344 262.59375 62.710938 C 264.714844 63.058594 266.8125 63.570312 268.929688 63.949219 C 272.726562 64.632812 281.277344 65.023438 281.746094 65.171875 C 276.972656 69.792969 271.574219 73.140625 265.578125 75.628906 C 265.84375 75.839844 273.929688 81.226562 277.167969 84.734375 C 278.191406 85.839844 279.140625 87.046875 280.027344 88.292969 C 282.210938 91.359375 284.003906 94.703125 285.683594 98.140625 C 287.9375 102.738281 290.324219 107.261719 292.515625 111.902344 C 293.894531 114.824219 295.226562 117.804688 296.039062 121.015625 C 296.085938 121.199219 296.117188 121.394531 296.203125 121.808594 C 289.167969 119.148438 282.4375 116.058594 275.410156 113.917969 C 276.738281 115.125 278.078125 116.308594 279.386719 117.546875 C 282.570312 120.574219 285.578125 123.808594 288.378906 127.277344 C 289.683594 128.902344 290.953125 130.574219 292.328125 132.125 C 295.769531 135.988281 298.433594 140.53125 301.351562 144.851562 C 302.164062 146.058594 303.003906 147.246094 303.816406 148.453125 C 305.953125 151.609375 307.855469 154.929688 309.476562 158.445312 C 309.644531 158.8125 309.78125 159.207031 310.019531 159.820312 C 309.515625 159.613281 309.183594 159.488281 308.859375 159.339844 C 305.996094 158.003906 303.425781 156.082031 300.808594 154.273438 C 296.964844 151.621094 293.039062 149.125 288.957031 146.96875 C 286.648438 145.75 281.660156 143.6875 281.324219 143.632812 C 281.984375 144.222656 282.460938 144.679688 282.964844 145.089844 C 286.527344 148.011719 289.34375 151.714844 291.855469 155.726562 C 295.445312 161.445312 298.53125 167.492188 301.371094 173.710938 C 303.511719 178.390625 305.277344 183.242188 306.941406 188.144531 C 307.28125 189.148438 307.484375 190.214844 307.8125 191.492188 C 307.320312 191.230469 298.078125 185.554688 293.574219 183.210938 C 290.917969 181.832031 285.40625 178.4375 285.070312 178.492188 C 285.6875 179.5625 286.269531 180.65625 286.925781 181.695312 C 289.160156 185.238281 291.242188 188.886719 292.976562 192.757812 C 294.523438 196.214844 295.828125 199.785156 296.664062 203.546875 C 297.519531 207.375 299.371094 216.003906 299.492188 216.75 C 299.046875 216.480469 291.332031 211.230469 287.738281 208.777344 C 285.585938 207.3125 283.449219 205.808594 281.25 204.4375 C 277.867188 202.328125 274.449219 200.292969 270.851562 198.648438 C 265.628906 196.261719 260.398438 193.902344 255.015625 191.980469 C 253.089844 191.289062 251.121094 190.730469 249.007812 190.058594 C 249.085938 190.460938 249.109375 190.679688 249.171875 190.890625 C 250.222656 194.582031 250.84375 198.371094 251.199219 202.222656 C 251.296875 203.265625 251.367188 204.3125 251.480469 205.355469 C 251.90625 209.316406 251.398438 213.144531 250.148438 216.855469 C 249.769531 217.976562 248.550781 220.109375 248.453125 220.109375 C 248.121094 219.285156 245.671875 213.09375 244.351562 211.089844 C 242.566406 208.386719 240.792969 205.667969 238.902344 203.058594 C 236.746094 200.085938 233.96875 197.894531 231.054688 195.941406 C 229.578125 194.949219 228.039062 194.074219 226.363281 193.042969 C 226.6875 194.226562 227.011719 195.191406 227.226562 196.191406 C 228.074219 200.113281 228.183594 204.0625 227.554688 208.050781 C 227.082031 211.039062 226.363281 213.945312 225.421875 216.78125 C 224.59375 219.269531 223.425781 221.578125 222.058594 223.746094 C 220.886719 225.601562 218.226562 229.320312 218.164062 229.371094 C 217.269531 226.109375 216.453125 222.847656 215.472656 219.644531 C 214.378906 216.074219 213.242188 212.511719 211.9375 209.03125 C 210.605469 205.476562 208.503906 202.441406 206.164062 199.621094 C 204.554688 197.671875 200.503906 194.101562 200.21875 193.90625 C 200.058594 196.5625 199.425781 198.964844 198.777344 201.359375 C 198.519531 202.320312 198.269531 203.296875 197.890625 204.199219 C 196.1875 208.273438 194.195312 212.171875 192.117188 216.023438 C 190.496094 219.019531 188.441406 221.652344 186.6875 224.535156 C 185.78125 226.027344 183.0625 229.9375 182.996094 229.902344 C 182.972656 229.632812 182.320312 217.613281 181.820312 211.894531 C 181.460938 207.714844 180.683594 203.585938 179.363281 199.644531 C 178.613281 197.410156 176.246094 192.367188 175.949219 191.835938 C 175.707031 192.347656 175.519531 192.6875 175.382812 193.050781 C 173.113281 199.171875 169.3125 204.015625 165.003906 208.410156 C 162.726562 210.730469 160.351562 212.933594 158.015625 215.179688 C 157.714844 215.46875 157.378906 215.707031 156.996094 216.011719 C 157.179688 212.027344 157.414062 208.203125 157.511719 204.367188 C 157.613281 200.550781 157.699219 196.722656 157.566406 192.90625 C 157.433594 189.09375 157.433594 185.230469 156.410156 181.324219 C 156.214844 181.609375 153.570312 186.53125 151.890625 188.539062 C 148.320312 192.8125 144.757812 197.09375 140.660156 200.753906 C 139.347656 201.929688 137.96875 203.011719 136.460938 204 C 136.523438 203.691406 138.441406 196.316406 139.332031 192.9375 C 140.257812 189.394531 141.214844 185.859375 142.101562 182.304688 C 143.222656 177.800781 143.90625 173.214844 144.105469 168.539062 C 144.1875 166.621094 144.179688 162.71875 144.074219 162.683594 Z M 155.34375 163.613281 C 155.507812 163.699219 155.75 164.105469 155.824219 164.292969 C 158.71875 171.6875 160.660156 179.367188 161.484375 187.390625 C 161.988281 192.277344 162.046875 197.191406 162.15625 202.101562 C 162.164062 202.449219 162.199219 202.800781 162.226562 203.191406 C 162.394531 203.109375 168.402344 195.535156 170.449219 191.632812 C 171.871094 188.914062 172.757812 186.109375 172.632812 182.925781 C 172.59375 181.894531 172.519531 180.976562 171.898438 180.125 C 171.238281 179.21875 170.734375 178.171875 170.109375 177.222656 C 168.921875 175.414062 168.320312 173.355469 168.054688 171.167969 C 167.953125 170.304688 167.980469 169.410156 168.050781 168.539062 C 168.234375 166.261719 168.476562 163.992188 168.695312 161.71875 C 169.242188 162.421875 169.613281 163.179688 169.9375 163.964844 C 171.273438 167.203125 172.566406 170.464844 173.933594 173.683594 C 174.285156 174.503906 174.800781 175.261719 175.339844 175.953125 C 179.160156 180.832031 183.589844 184.898438 188.617188 188.152344 C 189.167969 188.507812 190.46875 189.773438 190.699219 190.140625 C 187.445312 190.15625 184.429688 189.960938 181.621094 188.390625 C 181.183594 188.148438 179.828125 187.71875 179.410156 187.738281 C 184.003906 195.945312 186.117188 204.84375 186.898438 214.417969 C 187.269531 213.859375 187.515625 213.539062 187.703125 213.183594 C 188.980469 210.757812 190.265625 208.339844 191.492188 205.890625 C 193.230469 202.433594 194.511719 198.769531 195.296875 194.894531 C 195.953125 191.683594 196.191406 188.429688 196.078125 185.140625 C 196.058594 184.628906 196.074219 184.109375 196.074219 183.5 C 196.324219 183.640625 202.363281 188.90625 205.257812 191.523438 C 207.71875 193.753906 209.996094 196.199219 211.898438 199.046875 C 215.1875 203.96875 217.617188 209.390625 219.351562 215.207031 C 219.492188 215.667969 219.628906 216.128906 219.800781 216.699219 C 219.964844 216.457031 222.273438 210.453125 222.914062 207.386719 C 223.550781 204.328125 223.53125 201.234375 222.996094 198.136719 C 222.546875 195.554688 221.609375 193.191406 220.675781 190.804688 C 219.925781 188.882812 218.882812 187.371094 217.222656 186.375 C 216.679688 186.050781 216.195312 185.601562 215.484375 185.050781 C 215.484375 186.027344 215.542969 186.738281 215.472656 187.433594 C 215.289062 189.261719 215.078125 191.089844 214.8125 192.902344 C 214.734375 193.4375 214.574219 194.035156 214.046875 194.324219 C 213.378906 192.441406 212.859375 190.539062 212.0625 188.792969 C 210.230469 184.800781 208.320312 180.847656 206.339844 176.941406 C 204.625 173.574219 203.121094 170.105469 201.824219 166.523438 C 201.511719 165.652344 201.3125 164.730469 201.058594 163.835938 C 201.128906 163.785156 201.195312 163.742188 201.269531 163.695312 C 201.613281 164.0625 201.960938 164.429688 202.296875 164.804688 C 204.296875 167.019531 206.246094 169.304688 208.308594 171.445312 C 211.371094 174.628906 214.777344 177.335938 218.273438 179.898438 C 221.164062 182.015625 223.941406 184.34375 226.859375 186.410156 C 229.402344 188.207031 232.042969 189.835938 234.695312 191.417969 C 237.070312 192.835938 239 194.816406 240.699219 197.066406 C 242.441406 199.378906 244.023438 201.832031 245.679688 204.222656 C 245.894531 204.53125 246.117188 204.835938 246.46875 205.328125 C 246.628906 203.144531 246.269531 201.304688 245.972656 199.460938 C 245.671875 197.601562 245.40625 195.730469 244.996094 193.902344 C 244.597656 192.113281 244.101562 190.347656 243.542969 188.613281 C 242.972656 186.839844 242.367188 185.0625 241.617188 183.378906 C 240.886719 181.726562 239.957031 180.183594 239.03125 178.441406 C 239.609375 178.609375 240.050781 178.707031 240.46875 178.871094 C 242.539062 179.683594 244.511719 180.71875 246.234375 182.257812 C 247.101562 183.039062 248.058594 183.550781 249.117188 183.90625 C 253.003906 185.222656 256.871094 186.621094 260.769531 187.894531 C 267.460938 190.078125 274.003906 192.679688 280.253906 196.171875 C 283.414062 197.941406 289.828125 202.183594 290.097656 202.339844 C 290.058594 202.0625 286.882812 194.582031 285.21875 191.011719 C 282.839844 185.90625 280.238281 180.945312 277.371094 176.160156 C 275.011719 172.222656 272.273438 168.683594 268.6875 166.039062 C 264.703125 163.097656 260.738281 160.113281 256.769531 157.148438 C 256.464844 156.921875 256.179688 156.664062 255.867188 156.40625 C 255.96875 156.320312 270.152344 160.519531 276.300781 164.835938 C 278.558594 166.421875 280.886719 167.890625 283.160156 169.453125 C 287.195312 172.226562 297 178.867188 298.117188 179.53125 C 297.925781 178.980469 288.324219 160.28125 284.484375 154.824219 C 283.972656 154.097656 283.449219 153.371094 282.851562 152.738281 C 280.003906 149.6875 277.214844 146.570312 273.863281 144.148438 C 270.484375 141.707031 267.214844 139.082031 263.882812 136.558594 C 260.738281 134.171875 257.578125 131.816406 254.429688 129.441406 C 254.039062 129.148438 253.683594 128.808594 253.308594 128.488281 C 253.351562 128.398438 271.851562 133.867188 279.664062 136.492188 C 283.597656 137.8125 287.476562 139.273438 291.128906 141.40625 C 291.546875 141.652344 291.984375 141.859375 292.449219 142.109375 C 292.4375 141.925781 287.675781 135.246094 285.066406 132.238281 C 281.71875 128.378906 278.203125 124.691406 274.617188 121.101562 C 271.402344 117.878906 268.058594 114.796875 264.648438 111.828125 C 262.039062 109.5625 259.230469 107.578125 256.519531 105.460938 C 256.214844 105.222656 255.792969 105.082031 255.679688 104.457031 C 261.160156 105.097656 266.503906 106.066406 271.820312 107.214844 C 277.109375 108.355469 282.269531 110.046875 287.414062 111.921875 C 286.257812 109.355469 285.148438 106.820312 283.796875 104.460938 C 281.402344 100.289062 278.878906 96.214844 276.375 92.128906 C 275.09375 90.039062 273.535156 88.199219 271.828125 86.546875 C 268.859375 83.664062 265.578125 81.273438 261.949219 79.550781 C 257.9375 77.644531 253.878906 75.859375 249.839844 74.019531 C 249.589844 73.90625 249.355469 73.753906 249.113281 73.621094 C 250.160156 73.339844 251.171875 73.265625 252.171875 73.109375 C 254.855469 72.691406 257.53125 72.203125 260.21875 71.820312 C 262.289062 71.527344 267.398438 69.636719 267.921875 68.980469 C 266.945312 68.792969 254.421875 66.429688 249.101562 64.855469 C 246.199219 63.992188 243.269531 63.105469 240.300781 62.660156 C 236.09375 62.027344 231.832031 61.808594 227.597656 61.375 C 224.449219 61.050781 221.285156 60.8125 218.164062 60.269531 C 212.960938 59.359375 207.792969 58.195312 202.597656 57.21875 C 195.511719 55.886719 188.441406 54.492188 181.242188 53.980469 C 170.808594 53.242188 161.144531 55.917969 152.015625 61.359375 C 148.5 63.460938 145.058594 65.71875 141.566406 67.871094 C 140.714844 68.394531 139.8125 68.828125 138.90625 69.242188 C 137.65625 69.816406 136.371094 70.300781 135.128906 70.894531 C 134.191406 71.339844 134.046875 72.085938 134.671875 73 C 134.96875 73.429688 135.320312 73.816406 135.671875 74.195312 C 136.238281 74.8125 136.839844 75.382812 137.394531 76.011719 C 139.449219 78.355469 141.078125 80.972656 141.769531 84.238281 C 142.148438 86.03125 142.757812 87.769531 143.097656 89.570312 C 143.523438 91.808594 144.679688 93.339844 146.425781 94.375 C 148.515625 95.617188 150.597656 96.886719 152.742188 98 C 155.527344 99.445312 158.488281 100.269531 161.5625 100.441406 C 165.902344 100.679688 170.1875 101.375 174.414062 102.390625 C 180.519531 103.855469 186.578125 105.550781 192.667969 107.097656 C 195.679688 107.863281 198.730469 108.367188 201.839844 108.296875 C 202.609375 108.28125 203.378906 108.296875 204.148438 108.296875 C 204.171875 108.398438 204.191406 108.496094 204.214844 108.601562 C 203.871094 108.808594 203.527344 109.023438 203.179688 109.226562 C 200.617188 110.695312 197.878906 111.589844 195.085938 112.308594 C 189.613281 113.714844 184.046875 114.488281 178.492188 115.324219 C 177.246094 115.511719 176.003906 115.714844 174.507812 115.949219 C 174.886719 116.25 175.019531 116.390625 175.171875 116.46875 C 176.164062 116.980469 177.15625 117.476562 178.148438 117.980469 C 179.8125 118.824219 181.542969 118.988281 183.339844 118.707031 C 186.210938 118.257812 189.082031 117.839844 191.957031 117.445312 C 193.242188 117.269531 194.535156 117.183594 195.824219 117.054688 C 195.722656 117.429688 192.351562 119.550781 190.683594 120.109375 C 188.304688 120.902344 185.925781 121.691406 183.554688 122.511719 C 181.082031 123.371094 178.601562 123.917969 176.015625 123.136719 C 172.316406 122.011719 168.605469 120.929688 164.914062 119.78125 C 163.394531 119.308594 161.902344 118.707031 160.402344 118.164062 C 159.34375 117.785156 158.289062 117.785156 157.128906 118.15625 C 159.03125 119.035156 160.847656 119.828125 162.625 120.707031 C 164.417969 121.59375 166.261719 122.386719 167.871094 123.71875 C 165.140625 123.925781 162.449219 124.011719 159.753906 124.089844 C 157.046875 124.167969 154.339844 123.765625 151.628906 123.921875 C 154.539062 125.511719 157.394531 127.089844 160.269531 128.625 C 160.625 128.8125 161.070312 128.851562 161.476562 128.855469 C 165.089844 128.867188 168.707031 128.847656 172.324219 128.855469 C 178.222656 128.867188 184.035156 128.085938 189.753906 126.457031 C 191.117188 126.070312 192.503906 125.78125 193.878906 125.449219 C 193.714844 125.902344 185.453125 131.496094 181.089844 132.914062 C 177.828125 133.976562 174.464844 134.449219 171.078125 134.71875 C 170.617188 134.757812 170.160156 134.851562 169.699219 134.921875 C 169.6875 135.011719 176.382812 137.664062 179.066406 137.96875 C 181.53125 138.25 184.027344 138.136719 186.511719 138.257812 C 190.304688 138.441406 194.019531 137.917969 197.683594 136.847656 C 199.460938 136.324219 201.265625 135.9375 203.058594 135.488281 C 202.890625 135.839844 198.277344 139.109375 196.285156 140.691406 C 193.261719 143.097656 189.898438 144.355469 186.242188 144.820312 C 182.003906 145.363281 177.753906 145.441406 173.5 145.511719 C 172.867188 145.519531 172.238281 145.511719 171.523438 145.511719 C 171.996094 147.980469 172.722656 150.292969 173.824219 152.453125 C 175.546875 155.839844 177.71875 158.832031 180.234375 161.523438 C 180.601562 161.914062 180.9375 162.347656 181.289062 162.757812 C 180.488281 162.765625 179.800781 162.589844 179.109375 162.410156 C 175.089844 161.371094 171.917969 158.988281 169.507812 155.214844 C 167.828125 152.585938 165.957031 150.105469 164.128906 147.601562 C 162.632812 145.550781 161.074219 143.554688 159.535156 141.542969 C 159.128906 141.015625 158.109375 140.113281 158.039062 140.160156 C 159.363281 143.339844 160.871094 146.445312 161.480469 149.917969 C 162.09375 153.402344 162.324219 156.921875 162.09375 160.488281 C 155.925781 152.109375 151.015625 142.808594 145.527344 133.949219 C 146.289062 141.648438 145.304688 149.125 143.742188 156.585938 C 144.117188 156.230469 147.226562 150.738281 148.484375 148.402344 C 148.660156 148.074219 148.835938 147.746094 149.011719 147.414062 C 149.40625 149.496094 149.449219 151.492188 149.347656 153.496094 C 149.097656 158.523438 148.890625 163.554688 148.601562 168.578125 C 148.46875 170.957031 148.300781 173.351562 147.9375 175.699219 C 147.390625 179.210938 146.652344 182.683594 146.003906 186.171875 C 145.941406 186.511719 145.910156 186.859375 145.863281 187.203125 C 145.972656 187.28125 149.214844 182.964844 150.566406 181.054688 C 153.800781 176.484375 155.089844 171.1875 155.238281 165.46875 C 155.257812 164.867188 155.308594 164.265625 155.34375 163.613281 Z M 172.136719 106.824219 C 172.128906 106.695312 167.90625 105.605469 165.792969 105.246094 C 161.710938 104.558594 157.597656 104.109375 153.554688 103.058594 C 149.789062 102.082031 146.363281 100.425781 143.226562 97.921875 C 141.363281 96.433594 140.171875 94.542969 139.695312 92.015625 C 139.175781 89.269531 138.523438 86.550781 137.953125 83.8125 C 137.550781 81.863281 136.582031 80.289062 135.359375 78.882812 C 134.835938 78.28125 134.269531 77.71875 133.761719 77.101562 C 133.242188 76.46875 132.710938 76.359375 131.964844 76.65625 C 127.035156 78.601562 122.105469 80.53125 117.34375 82.972656 C 114.523438 84.414062 112.257812 86.535156 110.34375 89.179688 C 106.960938 93.867188 104.644531 99.097656 103.644531 105.070312 C 102.667969 110.882812 102.707031 116.550781 104.371094 122.21875 C 105.34375 125.546875 108.132812 132.277344 108.242188 132.476562 C 108.496094 130.941406 108.597656 129.453125 108.613281 127.96875 C 108.644531 125.300781 109.023438 122.6875 109.785156 120.175781 C 110.214844 118.761719 110.8125 117.363281 111.554688 116.125 C 113.347656 113.140625 115.921875 111.628906 119.171875 111.507812 C 120.894531 111.441406 122.53125 111.925781 124.175781 112.359375 C 124.953125 112.5625 125.484375 112.441406 126.078125 111.8125 C 128.125 109.648438 130.550781 108.238281 133.351562 107.808594 C 136.972656 107.246094 140.617188 107.007812 144.277344 107.015625 C 149.738281 107.03125 155.199219 107.027344 160.660156 107.015625 C 164.046875 107.007812 167.4375 106.96875 170.824219 106.933594 C 171.265625 106.933594 171.699219 106.863281 172.136719 106.824219 Z M 140.519531 115.398438 C 140.523438 115.277344 147.039062 114.222656 149.371094 114.074219 C 150.609375 113.996094 151.855469 114.035156 153.09375 113.941406 C 158.953125 113.488281 164.808594 113.027344 170.664062 112.519531 C 172.121094 112.390625 173.578125 112.140625 175.015625 111.816406 C 176.675781 111.4375 178.09375 110.441406 179.449219 109.332031 C 179.128906 109.28125 176.171875 109.917969 174.976562 110.003906 C 170.773438 110.300781 166.5625 110.644531 162.355469 110.726562 C 155.804688 110.851562 149.25 110.726562 142.699219 110.808594 C 139.992188 110.84375 137.285156 111.078125 134.585938 111.332031 C 133.113281 111.472656 131.699219 111.984375 130.496094 113 C 129.386719 113.933594 128.289062 114.898438 127.269531 115.949219 C 126.71875 116.519531 126.273438 116.566406 125.570312 116.332031 C 123.882812 115.769531 122.164062 115.296875 120.433594 114.90625 C 118.992188 114.582031 117.589844 114.863281 116.289062 115.679688 C 114.808594 116.605469 113.59375 118.8125 113.683594 120.507812 C 114.089844 120.390625 114.488281 120.289062 114.882812 120.164062 C 120.09375 118.523438 125.4375 117.871094 130.828125 117.695312 C 136.566406 117.507812 142.253906 118.160156 147.933594 119.007812 C 149.1875 119.195312 150.445312 119.359375 151.703125 119.539062 C 151.164062 119.0625 144.773438 116.914062 142.175781 116.070312 C 141.613281 115.886719 141.070312 115.625 140.519531 115.398438" fill="#243368" fill-rule="evenodd"/></g><g id="change3_4"><path d="M 153.785156 91.425781 C 155.105469 93.753906 156.875 95.472656 158.769531 97.074219 C 155.949219 96.617188 153.0625 96.394531 150.765625 94.339844 C 147.996094 91.863281 145.488281 89.085938 143.683594 85.617188 C 142.984375 84.28125 142.628906 82.871094 142.671875 81.300781 C 142.738281 78.824219 142.800781 76.351562 143.417969 73.949219 C 143.515625 73.566406 143.625 73.191406 143.933594 72.816406 C 144.054688 73.234375 144.175781 73.652344 144.292969 74.074219 C 144.695312 75.515625 145.089844 76.957031 145.496094 78.394531 C 145.574219 78.671875 145.691406 78.941406 145.8125 79.203125 C 147.019531 81.882812 147.78125 82.296875 150.296875 81.628906 C 153.585938 80.753906 156.847656 79.742188 160.101562 78.714844 C 164.367188 77.363281 168.609375 75.914062 172.878906 74.5625 C 175.039062 73.875 177.257812 73.855469 179.488281 74.058594 C 182.226562 74.308594 184.804688 75.132812 187.222656 76.589844 C 188.304688 77.242188 189.386719 77.886719 190.414062 78.773438 C 190.179688 78.773438 189.941406 78.789062 189.707031 78.773438 C 187.867188 78.636719 186.027344 78.496094 184.1875 78.359375 C 181.886719 78.1875 179.714844 78.726562 177.699219 79.6875 C 177.464844 82.035156 177.328125 84.289062 176.996094 86.503906 C 176.664062 88.695312 176.003906 90.789062 174.710938 92.699219 C 178.753906 92.230469 182.800781 91.769531 186.84375 91.300781 C 186.878906 91.394531 181.492188 94.347656 179.179688 95.351562 C 178.167969 95.789062 177.105469 96.085938 176.050781 96.398438 C 173.449219 97.164062 170.832031 96.960938 168.203125 96.589844 C 163.859375 95.976562 159.8125 94.339844 155.847656 92.363281 C 155.171875 92.027344 154.476562 91.738281 153.785156 91.425781 Z M 173.386719 81.5625 C 169.066406 83.417969 165.277344 86.03125 161.675781 89.410156 C 162.339844 89.769531 165.617188 90.636719 166.699219 90.671875 C 167.914062 90.710938 168.945312 90.132812 169.871094 89.273438 C 171.996094 87.300781 173.214844 84.816406 173.386719 81.5625" fill="#243368" fill-rule="evenodd"/></g><g id="change3_5"><path d="M 226.507812 152.046875 C 224.96875 148.519531 222.230469 146.042969 220.277344 142.78125 C 220.820312 142.640625 225.101562 145.007812 226.773438 146.058594 C 231.464844 149 236.121094 152.003906 240.796875 154.976562 C 242.414062 156.003906 243.789062 157.328125 245.078125 158.835938 C 248.667969 163.023438 251.355469 167.828125 253.261719 173.195312 C 253.429688 173.664062 253.621094 174.121094 253.804688 174.582031 C 253.96875 174.988281 254.148438 175.394531 254.183594 175.945312 C 253.886719 175.667969 253.578125 175.402344 253.300781 175.109375 C 249.789062 171.425781 246.296875 167.722656 242.769531 164.0625 C 241.808594 163.0625 240.765625 162.152344 239.722656 161.261719 C 238.324219 160.074219 236.730469 159.359375 234.828125 158.882812 C 237.394531 164.007812 239.441406 169.199219 239.816406 175.054688 C 239.6875 174.84375 239.539062 174.640625 239.433594 174.410156 C 238.246094 171.898438 236.695312 169.667969 234.949219 167.648438 C 230.027344 161.957031 224.894531 156.515625 219.097656 151.929688 C 216.921875 150.207031 214.617188 148.683594 212.382812 147.042969 C 211.542969 146.425781 210.742188 145.738281 209.8125 144.996094 C 211.128906 144.921875 214.972656 146.109375 218.488281 147.808594 C 221.203125 149.113281 223.839844 150.625 226.507812 152.046875" fill="#243368" fill-rule="evenodd"/></g><g id="change3_6"><path d="M 208.507812 95.167969 C 211.804688 92.804688 215.21875 90.679688 218.828125 88.964844 C 220.878906 87.984375 223.023438 87.246094 225.242188 87.085938 C 227.75 86.898438 230.289062 86.8125 232.789062 87.023438 C 236.128906 87.304688 239.054688 89.011719 241.8125 91.042969 C 242.867188 91.820312 243.894531 92.640625 244.890625 93.546875 C 241.449219 93.011719 238.074219 92.199219 234.609375 92.09375 C 231.160156 91.984375 227.8125 92.660156 224.269531 93.539062 C 226.191406 94.4375 228 95.128906 229.671875 96.105469 C 231.363281 97.097656 232.949219 98.320312 234.53125 99.53125 C 236.105469 100.742188 237.539062 102.15625 238.65625 104.019531 C 236.546875 103.328125 234.417969 102.675781 232.316406 101.941406 C 227.007812 100.085938 221.742188 98.03125 216.21875 97.085938 C 214.140625 96.726562 212.03125 96.597656 209.933594 96.414062 C 209.078125 96.339844 208.210938 96.398438 207.347656 96.398438 C 207.3125 96.308594 208.078125 95.476562 208.507812 95.167969" fill="#243368" fill-rule="evenodd"/></g><g id="change3_7"><path d="M 231.730469 81.382812 C 226.347656 81.476562 220.976562 81.613281 215.734375 83.1875 C 210.578125 84.730469 205.453125 86.382812 200.605469 88.941406 C 200.550781 88.871094 205.613281 81.90625 208.613281 79.972656 C 212.328125 77.574219 216.34375 76.398438 220.636719 77.585938 C 224.355469 78.605469 231.726562 81.238281 231.730469 81.382812" fill="#243368" fill-rule="evenodd"/></g><g id="change3_8"><path d="M 176.941406 149.0625 C 177.585938 149.621094 178.050781 150.035156 178.527344 150.441406 C 180.464844 152.074219 182.695312 152.933594 185.054688 153.363281 C 187.355469 153.78125 189.671875 154.042969 191.980469 154.394531 C 193.269531 154.589844 194.550781 154.824219 196.101562 155.089844 C 195.644531 155.34375 195.4375 155.488281 195.214844 155.578125 C 192.40625 156.652344 189.628906 157.828125 186.78125 158.761719 C 184.304688 159.570312 182.054688 158.832031 180.070312 156.949219 C 178.304688 155.269531 177.515625 153.066406 177.113281 150.621094 C 177.039062 150.171875 177.011719 149.714844 176.941406 149.0625" fill="#243368" fill-rule="evenodd"/></g><g id="change3_9"><path d="M 133.226562 94.53125 C 130.417969 94.382812 127.675781 94.414062 125.191406 92.859375 C 123.777344 91.972656 123.027344 89.941406 123.503906 88.347656 C 123.878906 87.105469 124.53125 86.6875 125.660156 87 C 127.335938 87.460938 128.628906 88.609375 129.773438 89.964844 C 130.90625 91.304688 133.140625 94.308594 133.226562 94.53125" fill="#243368" fill-rule="evenodd"/></g><g clip-path="url(#b)" id="change8_1"><path d="M 342.996094 270.542969 L 342.996094 201.027344 L 415.550781 201.027344 L 387.195312 235.785156 L 415.550781 270.542969 L 342.996094 270.542969" fill="#d63f4e"/></g><g id="change9_1"><path d="M 369.253906 186.464844 L 369.253906 253.046875 L 342.996094 270.542969 L 342.996094 205.859375 L 369.253906 186.464844" fill="#b53843"/></g><g id="change8_2"><path d="M 72.554688 270.535156 L 72.554688 201.015625 L 0 201.015625 L 28.355469 235.777344 L 0 270.535156 L 72.554688 270.535156" fill="#d63f4e"/></g><g id="change9_2"><path d="M 46.296875 186.453125 L 46.296875 253.039062 L 72.554688 270.535156 L 72.554688 205.851562 L 46.296875 186.453125" fill="#b53843"/></g><g id="change10_1"><path d="M 369.246094 253.03125 L 46.292969 253.03125 L 46.292969 186.082031 L 369.246094 186.082031 L 369.246094 253.03125" fill="#f14458"/></g><g id="change2_11"><path d="M 189.675781 237.339844 C 189.675781 234.070312 189.675781 230.90625 189.675781 227.738281 C 190.277344 227.523438 190.738281 227.625 191.207031 227.988281 C 194.558594 230.582031 198.371094 232.101562 202.523438 232.804688 C 204.902344 233.207031 207.285156 233.105469 209.644531 232.636719 C 210.609375 232.449219 211.460938 231.988281 212.273438 231.421875 C 213.664062 230.460938 213.742188 228.023438 212.566406 226.902344 C 211.839844 226.210938 211 225.722656 210.050781 225.476562 C 208.445312 225.058594 206.828125 224.675781 205.199219 224.347656 C 202.644531 223.835938 200.097656 223.289062 197.683594 222.28125 C 197.019531 222.003906 196.363281 221.695312 195.726562 221.355469 C 191.910156 219.332031 190.011719 216.132812 189.878906 211.828125 C 189.757812 208.019531 191.296875 205.011719 194.246094 202.679688 C 196.640625 200.785156 199.382812 199.636719 202.359375 199.113281 C 209.078125 197.941406 215.605469 198.835938 221.984375 201.109375 C 222.101562 201.152344 222.21875 201.199219 222.328125 201.257812 C 222.382812 201.285156 222.421875 201.339844 222.492188 201.40625 C 222.492188 204.421875 222.492188 207.457031 222.492188 210.503906 C 221.875 210.652344 221.394531 210.570312 220.878906 210.203125 C 216.558594 207.117188 211.761719 205.640625 206.4375 206.050781 C 205.269531 206.140625 204.132812 206.378906 203.070312 206.867188 C 202.589844 207.089844 202.117188 207.375 201.726562 207.726562 C 199.925781 209.335938 200.25 211.800781 202.433594 212.804688 C 203.394531 213.246094 204.4375 213.546875 205.46875 213.796875 C 207.964844 214.398438 210.492188 214.890625 212.988281 215.507812 C 215.15625 216.039062 217.257812 216.78125 219.175781 217.960938 C 221.25 219.234375 222.859375 220.910156 223.5625 223.300781 C 224.902344 227.863281 223.921875 232.785156 219.828125 236.164062 C 217.316406 238.238281 214.40625 239.449219 211.234375 239.980469 C 204.03125 241.179688 197.039062 240.351562 190.273438 237.617188 C 190.070312 237.539062 189.878906 237.433594 189.675781 237.339844" fill="#fff" fill-rule="evenodd"/></g><g id="change2_12"><path d="M 99.277344 199.316406 C 102.792969 199.316406 106.203125 199.316406 109.71875 199.316406 C 109.71875 199.757812 109.71875 200.160156 109.71875 200.5625 C 109.71875 208.449219 109.71875 216.339844 109.722656 224.230469 C 109.722656 225.585938 109.820312 226.929688 110.191406 228.242188 C 110.929688 230.851562 112.640625 232.308594 115.316406 232.703125 C 116.925781 232.941406 118.503906 232.902344 120.078125 232.496094 C 122.175781 231.957031 123.558594 230.636719 124.140625 228.578125 C 124.4375 227.527344 124.574219 226.421875 124.667969 225.332031 C 124.761719 224.273438 124.714844 223.195312 124.714844 222.128906 C 124.714844 214.929688 124.714844 207.730469 124.714844 200.53125 C 124.714844 200.15625 124.714844 199.78125 124.714844 199.265625 C 128.199219 199.265625 131.632812 199.265625 135.15625 199.265625 C 135.15625 199.707031 135.15625 200.046875 135.15625 200.382812 C 135.15625 208.523438 135.15625 216.667969 135.160156 224.808594 C 135.160156 226.898438 134.96875 228.957031 134.285156 230.9375 C 132.769531 235.355469 129.605469 238.046875 125.234375 239.417969 C 123.34375 240.011719 121.394531 240.289062 119.410156 240.421875 C 116.761719 240.59375 114.128906 240.503906 111.535156 239.980469 C 110.128906 239.699219 108.722656 239.296875 107.40625 238.734375 C 102.726562 236.726562 100.195312 233.050781 99.480469 228.074219 C 99.34375 227.113281 99.285156 226.132812 99.285156 225.164062 C 99.269531 216.863281 99.277344 208.566406 99.277344 200.265625 C 99.277344 199.984375 99.277344 199.703125 99.277344 199.316406" fill="#fff" fill-rule="evenodd"/></g><g id="change2_13"><path d="M 284.148438 239.597656 C 280.664062 239.597656 277.21875 239.597656 273.65625 239.597656 C 278.636719 226.113281 283.585938 212.699219 288.535156 199.292969 C 292.570312 199.292969 296.527344 199.292969 300.542969 199.292969 C 305.496094 212.707031 310.445312 226.117188 315.421875 239.605469 C 311.757812 239.605469 308.246094 239.605469 304.664062 239.605469 C 303.730469 236.917969 302.796875 234.230469 301.855469 231.519531 C 296.882812 231.519531 291.957031 231.519531 286.949219 231.519531 C 286.015625 234.207031 285.085938 236.898438 284.148438 239.597656 Z M 289.488281 223.988281 C 292.820312 223.988281 296.011719 223.988281 299.316406 223.988281 C 297.699219 219.261719 296.113281 214.605469 294.496094 209.964844 C 294.429688 209.96875 294.359375 209.976562 294.289062 209.980469 C 292.699219 214.621094 291.105469 219.265625 289.488281 223.988281" fill="#fff" fill-rule="evenodd"/></g></g></svg>